<?xml version="1.0" standalone="no"?>
<!DOCTYPE svg PUBLIC "-//W3C//DTD SVG 1.1//EN" "http://www.w3.org/Graphics/SVG/1.1/DTD/svg11.dtd">
<svg version="1.1" xmlns="http://www.w3.org/2000/svg" viewBox="0 0 48.8276142824966 66.27032627381351" width="48.8276142824966" height="66.27032627381351"><!-- svg-source:excalidraw --><metadata></metadata><defs><style class="style-fonts">
      </style></defs><g stroke-linecap="round"><g transform="translate(14.645890150653486 26.978981994540334) rotate(0 10.105519480520115 0.67370129870136)"><path d="M1.04 -1.13 C0.34 -2.56, -5.5 -5.04, -3.77 -7.67 C-2.04 -10.3, 6.78 -17.74, 11.43 -16.92 C16.08 -16.09, 25.01 -6.64, 24.12 -2.72 C23.23 1.19, 8.04 3.37, 6.09 6.59 C4.14 9.81, 11.43 14.85, 12.43 16.59 M0.13 0.9 C-0.7 -0.42, -6.05 -3.37, -4.3 -6.21 C-2.55 -9.05, 5.92 -16.92, 10.63 -16.13 C15.35 -15.35, 24.47 -5.23, 24.02 -1.47 C23.56 2.28, 10.16 3.03, 7.88 6.42 C5.61 9.81, 9.56 17.35, 10.36 18.87" stroke="#868e96" stroke-width="2" fill="none"></path></g></g><mask></mask><g stroke-linecap="round"><g transform="translate(26.493786966936568 49.298419944915395) rotate(0 0.1882856274326059 3.3953940914637144)" fill-rule="evenodd"><path d="M0.58 -0.01 C0.15 0.19, -2.47 0.92, -2.62 2.05 C-2.78 3.17, -1.14 6.69, -0.36 6.75 C0.42 6.81, 2.19 3.57, 2.04 2.39 C1.89 1.22, -0.83 0.03, -1.28 -0.31" stroke="none" stroke-width="0" fill="#ffffff" fill-rule="evenodd"></path><path d="M-0.01 -0.06 C-0.5 0.34, -2.65 1.07, -2.6 2.24 C-2.54 3.41, -0.63 6.98, 0.3 6.97 C1.24 6.97, 3.06 3.33, 3.01 2.21 C2.95 1.09, 0.47 0.67, -0.01 0.25 M-0.45 -0.4 C-1.01 -0.08, -2.99 0.62, -2.92 1.75 C-2.85 2.88, -1.01 6.41, 0 6.38 C1.01 6.35, 3.22 2.56, 3.14 1.58 C3.07 0.6, -0.02 0.7, -0.45 0.49" stroke="#868e96" stroke-width="2" fill="none"></path></g></g><mask></mask></svg>