<?xml version="1.0" encoding="UTF-8" standalone="no"?>
<svg
   version="1.1"
   viewBox="0 0 91.39969747193709 88.14446422225116"
   width="91.39969747193709"
   height="88.14446422225116"
   id="svg16"
   sodipodi:docname="beat.svg"
   inkscape:version="1.1.2 (0a00cf5339, 2022-02-04)"
   xmlns:inkscape="http://www.inkscape.org/namespaces/inkscape"
   xmlns:sodipodi="http://sodipodi.sourceforge.net/DTD/sodipodi-0.dtd"
   xmlns="http://www.w3.org/2000/svg"
   xmlns:svg="http://www.w3.org/2000/svg">
  <sodipodi:namedview
     id="namedview18"
     pagecolor="#ffffff"
     bordercolor="#666666"
     borderopacity="1.0"
     inkscape:pageshadow="2"
     inkscape:pageopacity="0.0"
     inkscape:pagecheckerboard="0"
     showgrid="false"
     inkscape:zoom="9.9041956"
     inkscape:cx="45.738192"
     inkscape:cy="44.021748"
     inkscape:window-width="1920"
     inkscape:window-height="1043"
     inkscape:window-x="1920"
     inkscape:window-y="0"
     inkscape:window-maximized="1"
     inkscape:current-layer="svg16" />
  <!-- svg-source:excalidraw -->
  <metadata
     id="metadata2" />
  <defs
     id="defs6">
    <style
       class="style-fonts"
       id="style4" />
  </defs>
  <g
     stroke-linecap="round"
     id="g12"
     style="stroke:#501616">
    <g
       transform="translate(46.6061415297213 76.35587915810076) rotate(0 0 -32.5)"
       id="g10"
       style="stroke:#501616">
      <path
         d="M0.1 -0.06 C5.73 -6.73, 31.83 -28.49, 34.49 -39.2 C37.15 -49.92, 21.73 -63.17, 16.05 -64.34 C10.37 -65.52, 6.88 -46.18, 0.39 -46.25 C-6.1 -46.32, -16.86 -65.68, -22.88 -64.77 C-28.9 -63.86, -39.73 -51.54, -35.75 -40.81 C-31.76 -30.07, -4.74 -7.33, 1.04 -0.34 M-1.31 -1.13 C4.07 -8.22, 30.5 -30.04, 33.27 -40.91 C36.04 -51.78, 20.8 -65.61, 15.31 -66.34 C9.82 -67.07, 6.4 -45.62, 0.32 -45.28 C-5.76 -44.93, -15.31 -65.37, -21.15 -64.26 C-26.99 -63.15, -38.01 -49.62, -34.73 -38.61 C-31.44 -27.6, -7.39 -4.88, -1.43 1.79"
         stroke="#868e96"
         stroke-width="2"
         fill="none"
         id="path8"
         style="stroke:#501616" />
    </g>
  </g>
  <mask
     id="mask14" />
</svg>
