<?xml version="1.0" encoding="UTF-8" standalone="no"?>
<svg
   version="1.1"
   viewBox="0 0 73.69398218695596 85.73001985256624"
   width="73.69398218695596"
   height="85.73001985256624"
   id="svg40"
   sodipodi:docname="certbot.svg"
   inkscape:version="1.1.2 (0a00cf5339, 2022-02-04)"
   xmlns:inkscape="http://www.inkscape.org/namespaces/inkscape"
   xmlns:sodipodi="http://sodipodi.sourceforge.net/DTD/sodipodi-0.dtd"
   xmlns="http://www.w3.org/2000/svg"
   xmlns:svg="http://www.w3.org/2000/svg">
  <sodipodi:namedview
     id="namedview42"
     pagecolor="#ffffff"
     bordercolor="#666666"
     borderopacity="1.0"
     inkscape:pageshadow="2"
     inkscape:pageopacity="0.0"
     inkscape:pagecheckerboard="0"
     showgrid="false"
     inkscape:zoom="10.183131"
     inkscape:cx="36.825609"
     inkscape:cy="42.91411"
     inkscape:window-width="1920"
     inkscape:window-height="1043"
     inkscape:window-x="1920"
     inkscape:window-y="0"
     inkscape:window-maximized="1"
     inkscape:current-layer="svg40" />
  <!-- svg-source:excalidraw -->
  <metadata
     id="metadata2" />
  <defs
     id="defs6">
    <style
       class="style-fonts"
       id="style4" />
  </defs>
  <g
     stroke-linecap="round"
     id="g12"
     style="stroke:#501616">
    <g
       transform="translate(14.95293023455406 37.64501981388048) rotate(0 21.022727272727252 16.193181818181827)"
       id="g10"
       style="stroke:#501616">
      <path
         d="M-0.28 -0.04 C-0.48 4.96, -9.42 24.49, -2.04 30.16 C5.33 35.83, 36.57 39.45, 43.97 33.98 C51.37 28.5, 49.65 2.99, 42.35 -2.68 C35.06 -8.35, 7.27 -0.54, 0.19 -0.06 M1.77 -1.1 C2.03 4.04, -6.78 25.37, 0.19 31.42 C7.17 37.48, 36.57 40.82, 43.61 35.23 C50.66 29.65, 49.93 3.73, 42.47 -2.09 C35 -7.91, 5.69 0.07, -1.18 0.31"
         stroke="#868e96"
         stroke-width="2"
         fill="none"
         id="path8"
         style="stroke:#501616" />
    </g>
  </g>
  <mask
     id="mask14" />
  <g
     stroke-linecap="round"
     id="g20"
     style="stroke:#501616">
    <g
       transform="translate(23.475657507281085 35.662990215571824) rotate(0 13.63636363636374 -12.215909090909093)"
       id="g18"
       style="stroke:#501616">
      <path
         d="M0.36 -0.29 C0.2 -2.87, -2.14 -10.36, -0.66 -14.57 C0.82 -18.78, 5.3 -24.82, 9.22 -25.56 C13.15 -26.3, 19.92 -23, 22.89 -19.02 C25.87 -15.05, 26.18 -4.86, 27.07 -1.71 M-0.92 -1.48 C-0.7 -4.53, -0.38 -12.69, 1.71 -16.58 C3.79 -20.47, 7.95 -24.07, 11.59 -24.83 C15.22 -25.59, 21.21 -25, 23.53 -21.13 C25.84 -17.26, 24.99 -5.03, 25.49 -1.61"
         stroke="#868e96"
         stroke-width="2"
         fill="none"
         id="path16"
         style="stroke:#501616" />
    </g>
  </g>
  <mask
     id="mask22" />
  <g
     stroke-linecap="round"
     id="g28"
     style="stroke:#501616">
    <g
       transform="translate(39.23939957916264 64.9573876785739) rotate(0 -0.026427061310641875 -1.9357822410147776)"
       id="g26"
       style="stroke:#501616">
      <path
         d="M0.07 0.31 C0.02 -0.39, -0.08 -3.21, -0.15 -3.94 M-0.32 0.16 C-0.44 -0.5, -0.59 -2.87, -0.48 -3.53"
         stroke="#868e96"
         stroke-width="2"
         fill="none"
         id="path24"
         style="stroke:#501616" />
    </g>
  </g>
  <mask
     id="mask30" />
  <g
     stroke-linecap="round"
     id="g36"
     style="stroke:#501616">
    <g
       transform="translate(38.78492882969749 53.60675172413082) rotate(0 0.1882856274326059 3.3953940914637286)"
       id="g34"
       style="stroke:#501616">
      <path
         d="M0.13 -0.02 C-0.29 0.32, -2.54 0.82, -2.49 2.01 C-2.45 3.19, -0.55 7.01, 0.39 7.06 C1.34 7.12, 3.25 3.45, 3.17 2.33 C3.09 1.21, 0.43 0.78, -0.08 0.35 M-0.23 -0.34 C-0.7 0.06, -2.82 1.33, -2.76 2.47 C-2.7 3.61, -0.89 6.64, 0.13 6.52 C1.16 6.4, 3.32 2.92, 3.39 1.76 C3.45 0.6, 1 -0.21, 0.52 -0.44"
         stroke="#868e96"
         stroke-width="2"
         fill="none"
         id="path32"
         style="stroke:#501616" />
    </g>
  </g>
  <mask
     id="mask38" />
</svg>
