<?xml version="1.0" encoding="UTF-8" standalone="no"?>
<svg
   version="1.1"
   viewBox="0 0 88 75"
   width="88"
   height="75"
   id="svg20"
   sodipodi:docname="console.svg"
   inkscape:version="1.1.2 (0a00cf5339, 2022-02-04)"
   xmlns:inkscape="http://www.inkscape.org/namespaces/inkscape"
   xmlns:sodipodi="http://sodipodi.sourceforge.net/DTD/sodipodi-0.dtd"
   xmlns="http://www.w3.org/2000/svg"
   xmlns:svg="http://www.w3.org/2000/svg">
  <sodipodi:namedview
     id="namedview22"
     pagecolor="#ffffff"
     bordercolor="#666666"
     borderopacity="1.0"
     inkscape:pageshadow="2"
     inkscape:pageopacity="0.0"
     inkscape:pagecheckerboard="0"
     showgrid="false"
     inkscape:zoom="11.64"
     inkscape:cx="43.986254"
     inkscape:cy="37.457045"
     inkscape:window-width="1920"
     inkscape:window-height="1043"
     inkscape:window-x="1920"
     inkscape:window-y="0"
     inkscape:window-maximized="1"
     inkscape:current-layer="svg20" />
  <!-- svg-source:excalidraw -->
  <metadata
     id="metadata2" />
  <defs
     id="defs6">
    <style
       class="style-fonts"
       id="style4" />
  </defs>
  <g
     stroke-linecap="round"
     transform="translate(10 10) rotate(0 34 27.5)"
     id="g10"
     style="stroke:#550000">
    <path
       d="M13.75 0 C22.93 1.3, 31.66 3.11, 54.25 0 M13.75 0 C23.3 0.67, 34.32 -0.28, 54.25 0 M54.25 0 C61.86 -0.61, 69.61 6.75, 68 13.75 M54.25 0 C61.97 2.61, 69.08 1.21, 68 13.75 M68 13.75 C71.19 24.66, 71.48 30.5, 68 41.25 M68 13.75 C66.45 20.1, 67.26 25.88, 68 41.25 M68 41.25 C66.14 48.81, 63.53 52.44, 54.25 55 M68 41.25 C69.33 50.54, 66.77 50.47, 54.25 55 M54.25 55 C39 56.54, 30.59 54.03, 13.75 55 M54.25 55 C37.68 53.9, 24.3 55.96, 13.75 55 M13.75 55 C4.16 56.22, 0.09 49.44, 0 41.25 M13.75 55 C2.44 57.7, -1.16 48.13, 0 41.25 M0 41.25 C2.81 33.65, 2.17 27.89, 0 13.75 M0 41.25 C-1.31 30.2, 0.71 21.68, 0 13.75 M0 13.75 C-0.85 2.07, 7.13 -3.76, 13.75 0 M0 13.75 C-0.41 4.15, 5.15 0.59, 13.75 0"
       stroke="#868e96"
       stroke-width="2"
       fill="none"
       id="path8"
       style="stroke:#550000" />
  </g>
  <g
     stroke-linecap="round"
     id="g16"
     style="stroke:#501616">
    <g
       transform="translate(22 21) rotate(0 20.5 -0.5)"
       id="g14"
       style="stroke:#501616">
      <path
         d="M0.51 -0.47 C7.11 -0.7, 33.48 -0.13, 40.22 -0.26 M-0.68 -1.76 C6.24 -1.83, 35.71 -2.28, 42.52 -1.99"
         stroke="#868e96"
         stroke-width="2"
         fill="none"
         id="path12"
         style="stroke:#501616" />
    </g>
  </g>
  <mask
     id="mask18" />
</svg>
