<?xml version="1.0" encoding="UTF-8" standalone="no"?>
<svg
   version="1.1"
   viewBox="0 0 100 96"
   width="100"
   height="96"
   id="svg12"
   sodipodi:docname="core.svg"
   inkscape:version="1.1.2 (0a00cf5339, 2022-02-04)"
   xmlns:inkscape="http://www.inkscape.org/namespaces/inkscape"
   xmlns:sodipodi="http://sodipodi.sourceforge.net/DTD/sodipodi-0.dtd"
   xmlns="http://www.w3.org/2000/svg"
   xmlns:svg="http://www.w3.org/2000/svg">
  <sodipodi:namedview
     id="namedview14"
     pagecolor="#ffffff"
     bordercolor="#666666"
     borderopacity="1.0"
     inkscape:pageshadow="2"
     inkscape:pageopacity="0.0"
     inkscape:pagecheckerboard="0"
     showgrid="false"
     inkscape:zoom="9.09375"
     inkscape:cx="50.034364"
     inkscape:cy="48.054983"
     inkscape:window-width="1920"
     inkscape:window-height="1043"
     inkscape:window-x="1920"
     inkscape:window-y="0"
     inkscape:window-maximized="1"
     inkscape:current-layer="svg12" />
  <!-- svg-source:excalidraw -->
  <metadata
     id="metadata2" />
  <defs
     id="defs6">
    <style
       class="style-fonts"
       id="style4" />
  </defs>
  <g
     stroke-linecap="round"
     transform="translate(10 10) rotate(0 40 38)"
     id="g10"
     style="stroke:#501616">
    <path
       d="M51.25 9.75 C58.38 18.71, 62.85 24.41, 69.75 29.25 M51.25 9.75 C55.06 16.02, 59.35 19.27, 69.75 29.25 M69.75 29.25 C78.06 41.56, 83.81 42.42, 69.75 48.75 M69.75 29.25 C77.87 35.78, 76.07 35.25, 69.75 48.75 M69.75 48.75 C64.51 53.97, 55.98 59.87, 51.25 66.25 M69.75 48.75 C63.1 52.92, 60.44 59.41, 51.25 66.25 M51.25 66.25 C41.4 72.1, 38.03 79.05, 30.75 66.25 M51.25 66.25 C43.02 71.72, 40.44 79.91, 30.75 66.25 M30.75 66.25 C29.19 64.06, 20.68 60.31, 10.25 48.75 M30.75 66.25 C21.77 60.5, 15.61 52.23, 10.25 48.75 M10.25 48.75 C3.71 41.14, -3.05 42.33, 10.25 29.25 M10.25 48.75 C-2.56 34.69, 1.6 34.87, 10.25 29.25 M10.25 29.25 C16.12 25.12, 21.9 16.05, 30.75 9.75 M10.25 29.25 C16.51 24.14, 18.53 19.24, 30.75 9.75 M30.75 9.75 C42.87 0.86, 38.27 3.31, 51.25 9.75 M30.75 9.75 C42.53 3.9, 41.51 -2.71, 51.25 9.75"
       stroke="#868e96"
       stroke-width="2"
       fill="none"
       id="path8"
       style="stroke:#501616" />
  </g>
</svg>
