<?xml version="1.0" encoding="UTF-8" standalone="no"?>
<svg
   version="1.1"
   viewBox="0 0 84.70148150749628 73.45066663102472"
   width="84.70148150749628"
   height="73.45066663102472"
   id="svg16"
   sodipodi:docname="datashare.svg"
   inkscape:version="1.1.2 (0a00cf5339, 2022-02-04)"
   xmlns:inkscape="http://www.inkscape.org/namespaces/inkscape"
   xmlns:sodipodi="http://sodipodi.sourceforge.net/DTD/sodipodi-0.dtd"
   xmlns="http://www.w3.org/2000/svg"
   xmlns:svg="http://www.w3.org/2000/svg">
  <sodipodi:namedview
     id="namedview18"
     pagecolor="#ffffff"
     bordercolor="#666666"
     borderopacity="1.0"
     inkscape:pageshadow="2"
     inkscape:pageopacity="0.0"
     inkscape:pagecheckerboard="0"
     showgrid="false"
     inkscape:zoom="11.885528"
     inkscape:cx="42.320374"
     inkscape:cy="36.767402"
     inkscape:window-width="1920"
     inkscape:window-height="1043"
     inkscape:window-x="1920"
     inkscape:window-y="0"
     inkscape:window-maximized="1"
     inkscape:current-layer="svg16" />
  <!-- svg-source:excalidraw -->
  <metadata
     id="metadata2" />
  <defs
     id="defs6">
    <style
       class="style-fonts"
       id="style4" />
  </defs>
  <g
     stroke-linecap="round"
     id="g12"
     style="stroke:#501616">
    <g
       transform="translate(11.140116788240448 14.148838393688209) rotate(0 29.131578947368325 22.60526315789474)"
       id="g10"
       style="stroke:#501616">
      <path
         d="M-0.9 -2.72 C2.41 -2.62, 16.95 -2.45, 21.03 0.26 C25.12 2.97, 17.38 11.8, 23.6 13.55 C29.82 15.29, 53.45 5.48, 58.36 10.74 C63.27 16, 62.01 39.63, 53.07 45.11 C44.14 50.6, 13.73 51.28, 4.75 43.65 C-4.23 36.03, -0.06 6.54, -0.81 -0.63 M3.81 1.98 C6.53 1.37, 15.22 -4.69, 18.13 -3.43 C21.04 -2.18, 14.45 6.81, 21.26 9.51 C28.07 12.22, 53.02 6.9, 59 12.78 C64.98 18.66, 65.79 39.87, 57.14 44.81 C48.49 49.75, 16.6 50.57, 7.12 42.41 C-2.36 34.25, 1.79 2.88, 0.27 -4.15"
         stroke="#868e96"
         stroke-width="2"
         fill="none"
         id="path8"
         style="stroke:#501616" />
    </g>
  </g>
  <mask
     id="mask14" />
</svg>
