<?xml version="1.0" encoding="UTF-8" standalone="no"?>
<svg
   version="1.1"
   viewBox="0 0 81.34934187002045 81.14951423836591"
   width="81.34934187002045"
   height="81.14951423836591"
   id="svg20"
   sodipodi:docname="database.svg"
   inkscape:version="1.1.2 (0a00cf5339, 2022-02-04)"
   xmlns:inkscape="http://www.inkscape.org/namespaces/inkscape"
   xmlns:sodipodi="http://sodipodi.sourceforge.net/DTD/sodipodi-0.dtd"
   xmlns="http://www.w3.org/2000/svg"
   xmlns:svg="http://www.w3.org/2000/svg">
  <sodipodi:namedview
     id="namedview22"
     pagecolor="#ffffff"
     bordercolor="#666666"
     borderopacity="1.0"
     inkscape:pageshadow="2"
     inkscape:pageopacity="0.0"
     inkscape:pagecheckerboard="0"
     showgrid="false"
     inkscape:zoom="10.75792"
     inkscape:cx="40.714189"
     inkscape:cy="40.528279"
     inkscape:window-width="1920"
     inkscape:window-height="1043"
     inkscape:window-x="1920"
     inkscape:window-y="0"
     inkscape:window-maximized="1"
     inkscape:current-layer="svg20" />
  <!-- svg-source:excalidraw -->
  <metadata
     id="metadata2" />
  <defs
     id="defs6">
    <style
       class="style-fonts"
       id="style4" />
  </defs>
  <g
     stroke-linecap="round"
     transform="translate(16.30806620885369 10.000000000000014) rotate(0 26.137195600641917 12.446283619353252)"
     id="g10"
     style="stroke:#501616">
    <path
       d="M5.05 3.23 C8.21 0.82, 15.52 0.08, 21.13 -0.18 C26.75 -0.45, 34.12 0.33, 38.73 1.64 C43.33 2.95, 46.55 5.34, 48.78 7.68 C51.02 10.03, 53.93 13.2, 52.12 15.69 C50.32 18.17, 43 21.3, 37.96 22.6 C32.93 23.91, 27 23.93, 21.94 23.54 C16.88 23.15, 11.18 21.75, 7.62 20.27 C4.06 18.79, -1.6 18.31, 0.6 14.66 C2.79 11, 14.5 0.74, 20.79 -1.66 C27.08 -4.05, 38.44 -0.37, 38.34 0.3 M3.29 3.74 C6.06 2.18, 11.19 2.29, 16.64 1.53 C22.1 0.76, 30.59 -1.31, 36.03 -0.84 C41.47 -0.38, 46.27 1.41, 49.28 4.31 C52.29 7.2, 54.9 13.5, 54.06 16.54 C53.22 19.59, 48.78 21.16, 44.25 22.55 C39.72 23.95, 32.66 25.41, 26.88 24.89 C21.1 24.37, 13.83 21.79, 9.55 19.43 C5.28 17.08, 2.12 13.11, 1.26 10.76 C0.39 8.41, 4 6.17, 4.36 5.33 C4.73 4.49, 2.8 5.55, 3.45 5.73"
       stroke="#868e96"
       stroke-width="2"
       fill="none"
       id="path8"
       style="stroke:#501616" />
  </g>
  <g
     stroke-linecap="round"
     id="g16"
     style="stroke:#501616">
    <g
       transform="translate(16.30806620885369 16.638017930321766) rotate(0 26.96694784193187 24.4776911180614)"
       id="g14"
       style="stroke:#501616">
      <path
         d="M0.15 0.18 C-0.43 7.56, -11.6 35.73, -3.18 43.69 C5.24 51.65, 41.41 53.82, 50.64 47.95 C59.88 42.09, 51.61 15.24, 52.22 8.49 M-3.22 -2.19 C-2.96 5.7, -6.88 38.37, 1.95 47.16 C10.77 55.94, 41.51 56.59, 49.75 50.52 C58 44.45, 51.28 17.93, 51.42 10.75"
         stroke="#868e96"
         stroke-width="2"
         fill="none"
         id="path12"
         style="stroke:#501616" />
    </g>
  </g>
  <mask
     id="mask18" />
</svg>
