<?xml version="1.0" standalone="no"?>
<!DOCTYPE svg PUBLIC "-//W3C//DTD SVG 1.1//EN" "http://www.w3.org/Graphics/SVG/1.1/DTD/svg11.dtd">
<svg version="1.1" xmlns="http://www.w3.org/2000/svg" viewBox="0 0 80.12777202431789 82.8048872421964" width="240.38331607295368" height="248.4146617265892"><!-- svg-source:excalidraw --><metadata></metadata><defs><style class="style-fonts">
      </style></defs><g stroke-linecap="round"><g transform="translate(15.233869113299534 55.35539142665971) rotate(0 25.384615384615245 6.6047745358089)"><path d="M0.16 -1.2 C0.71 1.37, -7.27 14.05, 0.83 16.46 C8.93 18.87, 40.74 16.53, 48.78 13.24 C56.82 9.96, 56.94 -0.95, 49.07 -3.25 C41.19 -5.56, 9.95 -0.86, 1.51 -0.58 M-3.19 -4.32 C-2.72 -2.59, -9.35 10.55, -0.96 12.67 C7.43 14.8, 38.87 10.87, 47.15 8.44 C55.43 6.02, 56.77 -0.47, 48.72 -1.87 C40.68 -3.27, 6.83 -0.91, -1.14 0.02" stroke="#868e96" stroke-width="2" fill="none"></path></g></g><mask></mask><g stroke-linecap="round" transform="translate(31.25774179234395 9.957513442574793) rotate(353.74767805450114 8.773209549071453 13.050397877984068)"><path d="M5.94 0.04 C7.65 -0.94, 9.86 0.38, 11.57 1.38 C13.28 2.38, 15.17 3.75, 16.2 6.04 C17.22 8.33, 18.05 12.18, 17.72 15.11 C17.39 18.03, 15.8 21.89, 14.23 23.58 C12.65 25.27, 10.28 25.3, 8.27 25.24 C6.25 25.18, 3.4 24.84, 2.16 23.23 C0.91 21.62, 1.07 18.55, 0.82 15.57 C0.57 12.6, -0.66 8.06, 0.64 5.38 C1.93 2.7, 7.11 0.48, 8.59 -0.49 C10.07 -1.47, 9.54 -0.88, 9.53 -0.46 M7.2 -0.15 C8.92 -1.17, 11.33 -0.58, 12.99 0.66 C14.64 1.91, 16.65 4.95, 17.14 7.34 C17.64 9.73, 16.23 12.47, 15.97 15 C15.71 17.52, 16.66 20.75, 15.59 22.49 C14.51 24.24, 11.55 25.2, 9.5 25.45 C7.46 25.71, 4.92 25.84, 3.32 24.02 C1.72 22.2, 0.02 17.4, -0.11 14.54 C-0.25 11.68, 1.37 9, 2.5 6.88 C3.63 4.76, 6.27 2.79, 6.68 1.83 C7.09 0.87, 5.09 1.11, 4.95 1.1" stroke="#868e96" stroke-width="2" fill="none"></path></g><g stroke-linecap="round"><g transform="translate(37.902304126561376 35.93894580331744) rotate(0 0.13925729443008095 7.579575596816966)"><path d="M-0.94 0.73 C-1.26 2.03, -3.45 5.33, -2.61 7.74 C-1.77 10.16, 2.92 14.1, 4.11 15.23 M0.77 0.07 C0.42 1.51, -3.61 6.14, -3.15 8.9 C-2.68 11.65, 2.18 15.51, 3.58 16.59" stroke="#868e96" stroke-width="2" fill="none"></path></g></g><mask></mask><g stroke-linecap="round"><g transform="translate(19.928829325501283 50.77979460968339) rotate(0 3.8793103448276725 2.842170943040401e-14)"><path d="M-0.65 -0.61 C0.56 -0.79, 5.94 -0.61, 7.28 -0.5 M0.39 0.72 C1.84 0.56, 7.67 0.18, 8.74 0.2" stroke="#868e96" stroke-width="2" fill="none"></path></g></g><mask></mask></svg>