<?xml version="1.0" standalone="no"?>
<!DOCTYPE svg PUBLIC "-//W3C//DTD SVG 1.1//EN" "http://www.w3.org/Graphics/SVG/1.1/DTD/svg11.dtd">
<svg version="1.1" xmlns="http://www.w3.org/2000/svg" viewBox="0 0 65.89507353844465 72.04633105510317" width="65.89507353844465" height="72.04633105510317"><!-- svg-source:excalidraw --><metadata></metadata><defs><style class="style-fonts">
      </style></defs><g stroke-linecap="round"><g transform="translate(10.585246812179776 32.814593225785416) rotate(0 22.256097560975604 4.268292682926784)"><path d="M-0.59 -0.05 C3.12 -3.08, 16.03 -16.22, 21.2 -19.32 C26.37 -22.41, 28.39 -19.96, 30.44 -18.6 C32.49 -17.24, 35.73 -15.47, 33.51 -11.15 C31.29 -6.84, 17.23 7.2, 17.11 7.29 C17 7.38, 28.33 -8.1, 32.81 -10.6 C37.3 -13.11, 42.35 -9.93, 44.01 -7.76 C45.67 -5.6, 46.2 -2.47, 42.77 2.4 C39.34 7.26, 26.07 16.96, 23.42 21.44 C20.76 25.91, 26.2 28.08, 26.82 29.23 M1.31 -1.12 C4.96 -4.38, 15.66 -17.77, 20.33 -21.02 C25.01 -24.27, 27.02 -22.47, 29.33 -20.63 C31.65 -18.79, 36.5 -14.19, 34.22 -9.98 C31.94 -5.77, 15.75 4.91, 15.66 4.64 C15.57 4.37, 28.9 -9.83, 33.68 -11.61 C38.47 -13.38, 43.09 -8.22, 44.39 -6 C45.69 -3.78, 45.25 -3.17, 41.47 1.71 C37.69 6.59, 24.11 18.72, 21.71 23.28 C19.32 27.85, 26.2 28.1, 27.11 29.08" stroke="#868e96" stroke-width="2" fill="none"></path></g></g><mask></mask><g stroke-linecap="round"><g transform="translate(37.71939315364307 17.875568835541458) rotate(0 -3.3536585365852716 13.719512195121979)"><path d="M0.27 -0.3 C-2.59 2.64, -14.48 13.26, -17.03 17.68 C-19.58 22.1, -17.21 24.74, -15.04 26.24 C-12.86 27.74, -8.11 29.27, -3.97 26.67 C0.17 24.07, 7.43 13.32, 9.79 10.65 M-1.04 -1.5 C-4.07 1.07, -15.54 11.14, -17.96 15.88 C-20.37 20.62, -17.96 24.96, -15.53 26.93 C-13.11 28.9, -7.94 30.42, -3.41 27.69 C1.13 24.96, 9.19 13.04, 11.67 10.54" stroke="#868e96" stroke-width="2" fill="none"></path></g></g><mask></mask></svg>