<?xml version="1.0" encoding="UTF-8" standalone="no"?>
<svg
   version="1.1"
   viewBox="0 0 91.83150183150155 81.15384615384608"
   width="275.49450549450466"
   height="243.46153846153823"
   id="svg38"
   sodipodi:docname="pgpool.svg"
   inkscape:version="1.1.2 (0a00cf5339, 2022-02-04)"
   xmlns:inkscape="http://www.inkscape.org/namespaces/inkscape"
   xmlns:sodipodi="http://sodipodi.sourceforge.net/DTD/sodipodi-0.dtd"
   xmlns="http://www.w3.org/2000/svg"
   xmlns:svg="http://www.w3.org/2000/svg">
  <sodipodi:namedview
     id="namedview40"
     pagecolor="#ffffff"
     bordercolor="#666666"
     borderopacity="1.0"
     inkscape:pageshadow="2"
     inkscape:pageopacity="0.0"
     inkscape:pagecheckerboard="0"
     showgrid="false"
     inkscape:zoom="3.5857821"
     inkscape:cx="137.62688"
     inkscape:cy="121.87021"
     inkscape:window-width="1621"
     inkscape:window-height="773"
     inkscape:window-x="210"
     inkscape:window-y="18"
     inkscape:window-maximized="0"
     inkscape:current-layer="svg38" />
  <!-- svg-source:excalidraw -->
  <metadata
     id="metadata2" />
  <defs
     id="defs6">
    <style
       class="style-fonts"
       id="style4" />
  </defs>
  <g
     stroke-linecap="round"
     transform="translate(10 26.987179487179446) rotate(0 9.706959706959879 10.19230769230768)"
     id="g10"
     style="stroke:#501616">
    <path
       d="M11.89 -0.86 C13.74 -0.73, 14.91 2.14, 16.25 3.76 C17.6 5.39, 19.79 6.81, 19.98 8.89 C20.17 10.96, 18.92 14.3, 17.42 16.19 C15.91 18.08, 12.86 19.84, 10.93 20.21 C9.01 20.57, 7.58 19.34, 5.85 18.39 C4.12 17.45, 1.45 16.4, 0.55 14.54 C-0.35 12.68, -0.18 9.44, 0.46 7.22 C1.1 5.01, 2.39 2.3, 4.41 1.25 C6.42 0.19, 11.12 1.1, 12.55 0.88 C13.99 0.66, 13.06 -0.04, 13.02 -0.09 M13.58 1.86 C15.13 3.04, 16.49 5.66, 17.24 7.56 C17.99 9.46, 18.45 11.61, 18.1 13.26 C17.75 14.91, 16.84 16.16, 15.14 17.44 C13.45 18.73, 10.01 20.82, 7.92 20.98 C5.84 21.15, 4.02 20.36, 2.64 18.43 C1.26 16.49, -0.26 11.97, -0.35 9.37 C-0.44 6.76, 0.82 4.4, 2.11 2.8 C3.39 1.21, 5.32 0.25, 7.35 -0.2 C9.39 -0.66, 13.02 -0.18, 14.31 0.06 C15.59 0.3, 14.97 0.78, 15.07 1.25"
       stroke="#868e96"
       stroke-width="2"
       fill="none"
       id="path8"
       style="stroke:#501616" />
  </g>
  <g
     stroke-linecap="round"
     transform="translate(47.85714285714221 11.941391941391998) rotate(0 9.706959706959879 10.19230769230768)"
     id="g14"
     style="stroke:#501616">
    <path
       d="M11.35 0.24 C13.49 0.3, 16.36 1.34, 17.65 3.17 C18.93 5, 19.21 8.73, 19.08 11.21 C18.95 13.7, 18.28 16.7, 16.87 18.08 C15.46 19.46, 12.7 19.52, 10.63 19.49 C8.56 19.47, 6.18 19.07, 4.45 17.96 C2.71 16.85, 0.82 14.94, 0.22 12.86 C-0.38 10.77, -0.12 7.42, 0.83 5.44 C1.79 3.47, 3.85 1.77, 5.94 1.03 C8.04 0.29, 12.23 1.03, 13.41 1.02 C14.59 1.02, 13.3 0.77, 13.04 0.99 M7.21 0.96 C8.95 0.02, 11.6 -0.22, 13.42 0.47 C15.23 1.17, 17 3.31, 18.08 5.15 C19.15 6.99, 20.22 9.62, 19.86 11.53 C19.5 13.44, 17.52 15.16, 15.91 16.6 C14.3 18.05, 12.38 19.92, 10.2 20.22 C8.02 20.52, 4.58 19.97, 2.84 18.39 C1.11 16.8, 0.02 13.14, -0.19 10.71 C-0.39 8.29, 0.31 5.28, 1.62 3.84 C2.93 2.39, 6.95 2.53, 7.67 2.05 C8.4 1.57, 6.12 1.16, 5.96 0.95"
       stroke="#868e96"
       stroke-width="2"
       fill="none"
       id="path12"
       style="stroke:#501616" />
  </g>
  <g
     stroke-linecap="round"
     transform="translate(57.56410256410254 50.76923076923072) rotate(0 9.706959706959879 10.19230769230768)"
     id="g18"
     style="stroke:#501616">
    <path
       d="M11.77 1.29 C13.64 1.8, 15.67 3.22, 16.99 4.96 C18.31 6.7, 19.71 9.6, 19.67 11.73 C19.63 13.86, 18.28 16.31, 16.74 17.74 C15.19 19.18, 12.5 20.15, 10.4 20.35 C8.3 20.54, 5.87 20.16, 4.15 18.89 C2.43 17.62, 0.75 14.84, 0.06 12.71 C-0.62 10.58, -0.89 8.15, 0.03 6.11 C0.95 4.08, 3.16 1.35, 5.56 0.48 C7.96 -0.38, 12.87 0.55, 14.43 0.92 C15.99 1.3, 15.17 2.4, 14.91 2.73 M14.17 0.34 C16.06 1.18, 17.88 4.35, 18.66 6.39 C19.44 8.43, 19.59 10.31, 18.85 12.6 C18.12 14.88, 16.11 18.61, 14.26 20.11 C12.42 21.61, 9.52 21.87, 7.8 21.59 C6.08 21.31, 5.17 20.36, 3.92 18.41 C2.67 16.46, 0.86 12.03, 0.3 9.88 C-0.26 7.74, -0.52 7.08, 0.58 5.54 C1.67 4.01, 4.75 1.64, 6.86 0.67 C8.97 -0.29, 12.15 -0.57, 13.24 -0.23 C14.32 0.11, 13.44 2.46, 13.39 2.74"
       stroke="#868e96"
       stroke-width="2"
       fill="none"
       id="path16"
       style="stroke:#501616" />
  </g>
  <g
     stroke-linecap="round"
     transform="translate(13.88278388278377 49.79853479853489) rotate(0 9.706959706959879 10.19230769230768)"
     id="g22"
     style="stroke:#501616">
    <path
       d="M5.67 0.47 C7.07 -0.56, 8.96 -0.67, 11.1 -0.14 C13.23 0.38, 17.17 1.72, 18.49 3.63 C19.81 5.54, 19.35 9.19, 19.02 11.33 C18.69 13.46, 17.94 14.78, 16.52 16.43 C15.09 18.08, 12.54 20.7, 10.47 21.21 C8.39 21.72, 5.88 20.9, 4.05 19.49 C2.22 18.07, -0.04 14.8, -0.51 12.71 C-0.98 10.62, 0.07 8.95, 1.24 6.94 C2.41 4.94, 5.52 1.71, 6.52 0.68 C7.52 -0.35, 7.13 0.71, 7.24 0.76 M10.33 0.22 C12.22 0.52, 14.38 2.64, 16.14 4.27 C17.9 5.9, 20.4 7.93, 20.87 9.98 C21.34 12.04, 20.49 14.98, 18.95 16.62 C17.41 18.25, 13.84 19.25, 11.62 19.8 C9.4 20.36, 7.23 20.74, 5.63 19.94 C4.03 19.14, 3 17.11, 2.05 14.99 C1.09 12.87, -0.31 9.21, -0.12 7.21 C0.07 5.21, 1.33 4.15, 3.18 3 C5.02 1.84, 9.61 0.73, 10.95 0.29 C12.29 -0.15, 11.12 -0.01, 11.21 0.37"
       stroke="#868e96"
       stroke-width="2"
       fill="none"
       id="path20"
       style="stroke:#501616" />
  </g>
  <g
     stroke-linecap="round"
     transform="translate(24.560439560440045 10) rotate(0 9.706959706959879 10.19230769230768)"
     id="g26"
     style="stroke:#501616">
    <path
       d="M11.94 -0.19 C13.89 -0.09, 15.66 2.02, 16.76 3.61 C17.86 5.2, 18.29 7.34, 18.55 9.33 C18.82 11.31, 19.47 13.7, 18.35 15.53 C17.23 17.37, 13.98 19.55, 11.86 20.33 C9.73 21.12, 7.52 21.23, 5.62 20.22 C3.72 19.21, 1.3 16.42, 0.46 14.26 C-0.37 12.11, -0.21 9.31, 0.62 7.27 C1.45 5.23, 3.3 3.33, 5.43 2.05 C7.55 0.77, 12.1 -0.3, 13.36 -0.39 C14.62 -0.48, 13.21 1.36, 12.99 1.51 M10.52 -0.1 C12.48 0.26, 14.99 3.58, 16.6 5.51 C18.22 7.45, 20 9.79, 20.19 11.52 C20.37 13.24, 19.41 14.17, 17.72 15.83 C16.02 17.49, 12.34 21.13, 10.03 21.47 C7.72 21.81, 5.44 19.36, 3.86 17.86 C2.28 16.35, 1.23 14.21, 0.55 12.45 C-0.13 10.69, -1.25 9.08, -0.24 7.31 C0.77 5.54, 4.43 2.87, 6.62 1.83 C8.81 0.8, 11.92 1.39, 12.91 1.11 C13.9 0.83, 12.98 -0.07, 12.55 0.14"
       stroke="#868e96"
       stroke-width="2"
       fill="none"
       id="path24"
       style="stroke:#501616" />
  </g>
  <g
     stroke-linecap="round"
     transform="translate(62.4175824175818 31.355311355311414) rotate(0 9.706959706959879 10.19230769230768)"
     id="g30"
     style="stroke:#501616">
    <path
       d="M11.87 -0.55 C13.96 -0.45, 16.04 1.14, 17.35 3.02 C18.66 4.91, 19.92 8.36, 19.72 10.75 C19.52 13.15, 17.58 15.73, 16.13 17.4 C14.68 19.08, 13.01 20.6, 11.03 20.81 C9.05 21.02, 6.03 20.03, 4.25 18.67 C2.48 17.32, 1.1 14.86, 0.37 12.68 C-0.36 10.49, -0.89 7.46, -0.13 5.56 C0.63 3.66, 2.76 2.02, 4.92 1.28 C7.09 0.53, 11.43 1.01, 12.85 1.09 C14.26 1.17, 13.47 1.86, 13.39 1.75 M6.88 0.37 C8.76 -0.24, 12.1 0.28, 14.13 1.34 C16.16 2.4, 18.55 4.78, 19.08 6.74 C19.61 8.7, 18.2 11.04, 17.3 13.1 C16.41 15.15, 15.51 18.1, 13.73 19.07 C11.96 20.05, 8.81 19.35, 6.68 18.96 C4.56 18.57, 2.16 18.35, 0.97 16.74 C-0.23 15.12, -0.52 11.32, -0.48 9.27 C-0.44 7.22, -0.27 6.05, 1.22 4.46 C2.72 2.87, 7.3 0.24, 8.49 -0.27 C9.67 -0.78, 8.14 1.23, 8.34 1.42"
       stroke="#868e96"
       stroke-width="2"
       fill="none"
       id="path28"
       style="stroke:#501616" />
  </g>
  <g
     stroke-linecap="round"
     transform="translate(33.29670329670398 33.2967032967033) rotate(0 12.133699633699507 11.16300366300365)"
     id="g36"
     style="stroke:#501616">
    <path
       d="M2.68 4.98 C2.68 4.98, 2.68 4.98, 2.68 4.98 M2.68 4.98 C2.68 4.98, 2.68 4.98, 2.68 4.98 M2.45 15.31 C7.23 11.28, 11.45 5.57, 17.87 1.27 M3.13 17.01 C8.3 11.52, 13.62 6.12, 15.82 2.7 M11.25 22.47 C14.99 16.03, 18.94 10.61, 22.93 8.19 M10.31 21.75 C13.91 17.34, 16.65 12.44, 22.97 5.57 M3.55 18.79 C3.55 18.79, 3.55 18.79, 3.55 18.79 M3.55 18.79 C3.55 18.79, 3.55 18.79, 3.55 18.79 M18.03 23.12 C11.7 15.68, 5.5 10.22, 3.55 6.66 M19.2 21.2 C12.87 15.4, 5.55 10.33, 1.49 7.8 M24.57 16.09 C19.26 10.16, 10.69 3.23, 7.6 1.08 M23.7 14.27 C17.35 10.7, 13.8 6.31, 7.87 -0.19"
       stroke="#868e96"
       stroke-width="1"
       fill="none"
       id="path32"
       style="stroke:#501616" />
    <path
       d="M17.22 1.35 C19.56 2.36, 22.53 5.37, 23.55 7.54 C24.58 9.71, 24.3 12.08, 23.37 14.38 C22.44 16.68, 20.14 20.02, 17.97 21.31 C15.81 22.6, 12.77 22.52, 10.38 22.1 C7.98 21.69, 5.29 20.37, 3.61 18.84 C1.94 17.32, 0.5 15.24, 0.33 12.96 C0.15 10.68, 1.22 7.23, 2.54 5.14 C3.87 3.05, 5.52 0.92, 8.28 0.41 C11.03 -0.1, 17.17 1.55, 19.08 2.08 C21 2.61, 19.81 3.36, 19.77 3.6 M17.23 -0.8 C19.79 -0.64, 21.66 1.61, 22.81 4.12 C23.95 6.62, 24.65 11.89, 24.1 14.23 C23.56 16.58, 21.42 16.62, 19.53 18.16 C17.65 19.7, 15.4 22.97, 12.82 23.49 C10.24 24.01, 6.03 23.06, 4.05 21.28 C2.07 19.5, 1.61 15.52, 0.94 12.8 C0.27 10.07, -1.09 6.75, 0.03 4.94 C1.16 3.14, 4.81 2.82, 7.7 1.96 C10.58 1.1, 15.76 0.04, 17.36 -0.2 C18.95 -0.44, 17.74 0.15, 17.27 0.51"
       stroke="#868e96"
       stroke-width="2"
       fill="none"
       id="path34"
       style="stroke:#501616" />
  </g>
</svg>
