<?xml version="1.0" encoding="UTF-8" standalone="no"?>
<svg
   version="1.1"
   viewBox="0 0 86.62113090681714 87.07018460428503"
   width="86.62113090681714"
   height="87.07018460428503"
   id="svg32"
   sodipodi:docname="pms.svg"
   inkscape:version="1.1.2 (0a00cf5339, 2022-02-04)"
   xmlns:inkscape="http://www.inkscape.org/namespaces/inkscape"
   xmlns:sodipodi="http://sodipodi.sourceforge.net/DTD/sodipodi-0.dtd"
   xmlns="http://www.w3.org/2000/svg"
   xmlns:svg="http://www.w3.org/2000/svg">
  <sodipodi:namedview
     id="namedview34"
     pagecolor="#ffffff"
     bordercolor="#666666"
     borderopacity="1.0"
     inkscape:pageshadow="2"
     inkscape:pageopacity="0.0"
     inkscape:pagecheckerboard="0"
     showgrid="false"
     inkscape:zoom="10.026394"
     inkscape:cx="43.28575"
     inkscape:cy="43.485223"
     inkscape:window-width="1920"
     inkscape:window-height="1043"
     inkscape:window-x="1920"
     inkscape:window-y="0"
     inkscape:window-maximized="1"
     inkscape:current-layer="svg32" />
  <!-- svg-source:excalidraw -->
  <metadata
     id="metadata2" />
  <defs
     id="defs6">
    <style
       class="style-fonts"
       id="style4" />
  </defs>
  <g
     stroke-linecap="round"
     id="g12"
     style="stroke:#501616">
    <g
       transform="translate(52.328822071683135 46.12414003259124) rotate(0 -9.315789473684163 -2.4473684210526585)"
       id="g10"
       style="stroke:#501616">
      <path
         d="M0.79 -0.86 C0.49 4.2, 5.37 26.02, -0.97 29.43 C-7.32 32.85, -30.96 27.31, -37.27 19.64 C-43.59 11.98, -43.2 -7.27, -38.87 -16.55 C-34.54 -25.83, -21.16 -34.91, -11.27 -36.05 C-1.39 -37.19, 15.4 -25.59, 20.45 -23.39 M-0.25 1.31 C-0.73 6.54, 4.67 27.65, -1.58 30.37 C-7.82 33.08, -31.46 25.79, -37.71 17.61 C-43.96 9.43, -43.3 -9.78, -39.08 -18.7 C-34.85 -27.63, -22 -35.53, -12.36 -35.95 C-2.72 -36.38, 13.47 -23.82, 18.77 -21.28"
         stroke="#868e96"
         stroke-width="2"
         fill="none"
         id="path8"
         style="stroke:#501616" />
    </g>
  </g>
  <mask
     id="mask14" />
  <g
     stroke-linecap="round"
     id="g20"
     style="stroke:#501616">
    <g
       transform="translate(27.78578821692372 17.556125586938037) rotate(0 19.000000000000227 7.3026315789473415)"
       id="g18"
       style="stroke:#501616">
      <path
         d="M0.22 -0.15 C3.2 1.26, 11.54 5.46, 17.75 7.93 C23.96 10.41, 34.13 13.52, 37.48 14.7 M-0.33 -0.7 C2.83 0.6, 12.3 4.54, 18.77 7.21 C25.25 9.89, 35.35 14.21, 38.52 15.35"
         stroke="#868e96"
         stroke-width="2"
         fill="none"
         id="path16"
         style="stroke:#501616" />
    </g>
  </g>
  <mask
     id="mask22" />
  <g
     stroke-linecap="round"
     id="g28"
     style="stroke:#501616">
    <g
       transform="translate(13.45245488358978 27.561238923545943) rotate(0 30.250000000000455 22.868421052631504)"
       id="g26"
       style="stroke:#501616">
      <path
         d="M2.09 1.54 C8.26 4.06, 27.36 16.65, 37.02 16.35 C46.67 16.04, 56.05 -2.41, 60.01 -0.27 C63.97 1.87, 64.18 21.25, 60.79 29.18 C57.39 37.11, 43.67 44.24, 39.64 47.32 M-0.22 -0.09 C6.9 1.59, 32.99 13.57, 42.69 12.74 C52.38 11.9, 54.79 -7.03, 57.93 -5.1 C61.08 -3.18, 65.1 15.38, 61.54 24.27 C57.98 33.17, 40.39 44.74, 36.59 48.26"
         stroke="#868e96"
         stroke-width="2"
         fill="none"
         id="path24"
         style="stroke:#501616" />
    </g>
  </g>
  <mask
     id="mask30" />
</svg>
