<?xml version="1.0" encoding="UTF-8" standalone="no"?>
<svg
   version="1.1"
   viewBox="0 0 65.75880506923158 80.96648800136307"
   width="65.75880506923158"
   height="80.96648800136307"
   id="svg38"
   sodipodi:docname="proxy.svg"
   inkscape:version="1.1.2 (0a00cf5339, 2022-02-04)"
   xmlns:inkscape="http://www.inkscape.org/namespaces/inkscape"
   xmlns:sodipodi="http://sodipodi.sourceforge.net/DTD/sodipodi-0.dtd"
   xmlns="http://www.w3.org/2000/svg"
   xmlns:svg="http://www.w3.org/2000/svg">
  <defs
     id="defs42" />
  <sodipodi:namedview
     id="namedview40"
     pagecolor="#ffffff"
     bordercolor="#666666"
     borderopacity="1.0"
     inkscape:pageshadow="2"
     inkscape:pageopacity="0.0"
     inkscape:pagecheckerboard="0"
     showgrid="false"
     inkscape:zoom="10.782238"
     inkscape:cx="32.924518"
     inkscape:cy="40.436873"
     inkscape:window-width="1920"
     inkscape:window-height="1043"
     inkscape:window-x="1920"
     inkscape:window-y="0"
     inkscape:window-maximized="1"
     inkscape:current-layer="svg38" />
  <g
     transform="translate(11.319488,38.415552)"
     id="g4"
     style="stroke:#501616;stroke-linecap:round">
    <path
       d="M -0.2,-0.37 C 1.73,-3.11 4.35,-12.01 11.67,-16.68 19,-21.36 38.5,-26.52 43.77,-28.42 M 0.7,0.63 c 2.1,-2.64 4.9,-11.93 12.05,-16.71 7.15,-4.78 25.73,-10.05 30.82,-11.98"
       stroke="#868e96"
       stroke-width="1"
       fill="none"
       id="path2"
       style="stroke:#501616" />
  </g>
  <g
     transform="translate(11.319488,38.415552)"
     id="g10"
     style="stroke:#501616;stroke-linecap:round;fill:#501616">
    <path
       d="m 44.16,-27.49 -10.68,9.63 -5.19,-11.77 15.61,1.35"
       stroke="none"
       stroke-width="0"
       fill="#868e96"
       fill-rule="evenodd"
       id="path6"
       style="stroke:#501616;fill:#501616" />
    <path
       d="m 43.57,-28.06 c -3.92,2.79 -7.07,6.84 -10.87,10.33 m 10.87,-10.33 c -1.99,2.14 -4.6,4.37 -10.87,10.33 m 0,0 c -1.28,-4.85 -3.6,-8.55 -4.03,-12.02 m 4.03,12.02 c -1.01,-2.35 -1.54,-5.33 -4.03,-12.02 m 0,0 c 5.47,0.98 9.28,0.79 14.9,1.69 m -14.9,-1.69 c 5.61,0.44 11.83,1.38 14.9,1.69 m 0,0 c 0,0 0,0 0,0 m 0,0 c 0,0 0,0 0,0"
       stroke="#868e96"
       stroke-width="1"
       fill="none"
       id="path8"
       style="stroke:#501616;fill:#501616" />
  </g>
  <g
     transform="translate(17.319488,39.36292)"
     id="g16"
     style="stroke:#501616;stroke-linecap:round">
    <path
       d="m -0.93,0.83 c 2.49,-0.16 9,-0.88 15.56,-0.79 6.56,0.09 19.89,1.06 23.81,1.35 M 0.78,0.22 C 3.16,0.7 7.64,0.77 13.8,1.08 19.96,1.39 33.65,1.86 37.74,2.09"
       stroke="#868e96"
       stroke-width="1"
       fill="none"
       id="path14"
       style="stroke:#501616" />
  </g>
  <g
     transform="translate(17.319488,39.36292)"
     id="g22"
     style="stroke:#501616;stroke-linecap:round;fill:#501616">
    <path
       d="m 39.33,0.66 -12.19,6.59 -1.3,-9.7 12.05,4.27"
       stroke="none"
       stroke-width="0"
       fill="#868e96"
       fill-rule="evenodd"
       id="path18"
       style="stroke:#501616;fill:#501616" />
    <path
       d="m 38.57,2.31 c -4.8,1.08 -8.1,2.06 -12.71,3.57 m 11.95,-3.2 c -2.4,0.3 -4.37,1.42 -10.99,4.28 m -0.68,0 c 0.91,-3.77 0.99,-5.02 0.74,-10.28 m 0.03,9.56 C 27.2,3.7 27,1.28 27.34,-3.89 m -0.93,-0.67 c 3.56,2.25 6.02,4.73 11.25,7.02 M 27,-3.47 c 3.91,2.13 8.49,3.83 10.26,5.9 m 0.48,-0.34 c 0,0 0,0 0,0 m 0,0 c 0,0 0,0 0,0"
       stroke="#868e96"
       stroke-width="1"
       fill="none"
       id="path20"
       style="stroke:#501616;fill:#501616" />
  </g>
  <g
     transform="translate(10.214225,42.257657)"
     id="g28"
     style="stroke:#501616;stroke-linecap:round">
    <path
       d="m 0.3,-0.47 c 3.52,3.2 13.41,14.72 20.51,19.49 7.11,4.77 18.48,7.61 22.09,9.14 M -0.21,0.48 c 3.46,3.3 13.33,14.47 20.51,19.17 7.17,4.71 18.8,7.56 22.53,9.06"
       stroke="#868e96"
       stroke-width="1"
       fill="none"
       id="path26"
       style="stroke:#501616" />
  </g>
  <g
     transform="translate(10.214225,42.257657)"
     id="g34"
     style="stroke:#501616;stroke-linecap:round;fill:#501616">
    <path
       d="m 42.45,28.83 -10.85,0.97 3.54,-9.32 8.6,8.72"
       stroke="none"
       stroke-width="0"
       fill="#868e96"
       fill-rule="evenodd"
       id="path30"
       style="stroke:#501616;fill:#501616" />
    <path
       d="m 42.83,28.71 c -3.32,0.17 -5.77,1.23 -11.56,1.31 m 11.56,-1.31 c -3.05,0.27 -6.63,0.83 -11.56,1.31 m 0,0 c 0.41,-2.59 1.21,-4.81 3.13,-9.32 m -3.13,9.32 c 1.26,-3.75 2.36,-7.06 3.13,-9.32 m 0,0 c 3.53,2.92 6.46,5.2 8.43,8.01 M 34.4,20.7 c 2,2.04 4.07,3.99 8.43,8.01 m 0,0 c 0,0 0,0 0,0 m 0,0 c 0,0 0,0 0,0"
       stroke="#868e96"
       stroke-width="1"
       fill="none"
       id="path32"
       style="stroke:#501616;fill:#501616" />
  </g>
</svg>
