<?xml version="1.0" encoding="UTF-8" standalone="no"?>
<svg
   version="1.1"
   viewBox="0 0 85.909081542688 89.49143053356696"
   width="85.909081542688"
   height="89.49143053356696"
   id="svg16"
   sodipodi:docname="public.svg"
   inkscape:version="1.1.2 (0a00cf5339, 2022-02-04)"
   xmlns:inkscape="http://www.inkscape.org/namespaces/inkscape"
   xmlns:sodipodi="http://sodipodi.sourceforge.net/DTD/sodipodi-0.dtd"
   xmlns="http://www.w3.org/2000/svg"
   xmlns:svg="http://www.w3.org/2000/svg">
  <sodipodi:namedview
     id="namedview18"
     pagecolor="#ffffff"
     bordercolor="#666666"
     borderopacity="1.0"
     inkscape:pageshadow="2"
     inkscape:pageopacity="0.0"
     inkscape:pagecheckerboard="0"
     showgrid="false"
     inkscape:zoom="9.7551238"
     inkscape:cx="42.951787"
     inkscape:cy="44.796971"
     inkscape:window-width="1920"
     inkscape:window-height="1043"
     inkscape:window-x="1920"
     inkscape:window-y="0"
     inkscape:window-maximized="1"
     inkscape:current-layer="svg16" />
  <!-- svg-source:excalidraw -->
  <metadata
     id="metadata2" />
  <defs
     id="defs6">
    <style
       class="style-fonts"
       id="style4" />
  </defs>
  <g
     stroke-linecap="round"
     id="g12"
     style="stroke:#501616">
    <g
       transform="translate(73.00029050383318 32.89624602591661) rotate(0 -28.5 9.5)"
       id="g10"
       style="stroke:#501616">
      <path
         d="M-0.46 -0.99 C-3.47 -4.75, -9.97 -20.32, -18.89 -22.2 C-27.81 -24.08, -47.29 -22.57, -53.97 -12.3 C-60.66 -2.02, -66.89 30.38, -58.98 39.45 C-51.06 48.52, -16.63 48.43, -6.49 42.13 C3.65 35.83, 3.97 12.02, 1.87 1.65 C-0.22 -8.72, -15.69 -19.46, -19.06 -20.11 C-22.42 -20.76, -21.47 -5.69, -18.3 -2.25 C-15.13 1.2, -2.93 0.37, -0.04 0.56 M1.5 1.1 C-1.59 -2.5, -10.41 -18.21, -19.78 -20.77 C-29.16 -23.33, -48.15 -24.44, -54.73 -14.27 C-61.3 -4.1, -67.04 31.31, -59.24 40.26 C-51.45 49.21, -17.84 46.01, -7.95 39.46 C1.94 32.91, 1.88 11.11, 0.09 0.95 C-1.71 -9.21, -15.45 -20.9, -18.71 -21.51 C-21.97 -22.13, -22.31 -6.22, -19.48 -2.72 C-16.65 0.78, -4.87 -1.23, -1.73 -0.52"
         stroke="#868e96"
         stroke-width="2"
         fill="none"
         id="path8"
         style="stroke:#501616" />
    </g>
  </g>
  <mask
     id="mask14" />
</svg>
