<?xml version="1.0" standalone="no"?>
<!DOCTYPE svg PUBLIC "-//W3C//DTD SVG 1.1//EN" "http://www.w3.org/Graphics/SVG/1.1/DTD/svg11.dtd">
<svg version="1.1" xmlns="http://www.w3.org/2000/svg" viewBox="0 0 88 84.90046600271242" width="264" height="254.70139800813726"><!-- svg-source:excalidraw --><metadata></metadata><defs><style class="style-fonts">
      </style></defs><g stroke-linecap="round" transform="translate(10 10) rotate(0 34 27.5)"><path d="M13.75 0 C26.03 -0.65, 35.69 -1.45, 54.25 0 M13.75 0 C27.78 0.03, 44.46 1.23, 54.25 0 M54.25 0 C59.96 -2.16, 64.63 2.53, 68 13.75 M54.25 0 C60.31 -2.7, 70.47 7.97, 68 13.75 M68 13.75 C66.64 23.53, 70.54 35.14, 68 41.25 M68 13.75 C68.08 24.35, 70.16 31.67, 68 41.25 M68 41.25 C71.5 46.61, 61.99 53.16, 54.25 55 M68 41.25 C65.88 47.83, 63.81 50.56, 54.25 55 M54.25 55 C45.32 55.27, 33.71 53.34, 13.75 55 M54.25 55 C41.34 55.53, 26.1 54.63, 13.75 55 M13.75 55 C1.91 53.55, 2.73 53.69, 0 41.25 M13.75 55 C8.65 51.8, 0.3 49.11, 0 41.25 M0 41.25 C-0.96 29.96, -0.04 23.44, 0 13.75 M0 41.25 C1.04 32.38, -0.81 26.28, 0 13.75 M0 13.75 C3.16 3.86, 4.94 -2.3, 13.75 0 M0 13.75 C-2.85 6.73, 6.2 1.94, 13.75 0" stroke="#868e96" stroke-width="2" fill="none"></path></g><g stroke-linecap="round"><g transform="translate(11.444444444444798 53.77777777777777) rotate(0 31.54178717628929 1.6745719701884099)"><path d="M-0.65 2.62 C4.43 2.86, 18.76 3.99, 29.49 3.68 C40.22 3.38, 58.18 1.04, 63.74 0.78 M4.19 1.57 C8.88 0.82, 16.98 -0.56, 26.59 -0.37 C36.21 -0.17, 55.85 1.97, 61.9 2.74" stroke="#868e96" stroke-width="2" fill="none"></path></g></g><mask></mask><g stroke-linecap="round"><g transform="translate(41.04248366012962 64.02777777777794) rotate(0 0.48315923464679145 4.303185016028593)"><path d="M-0.16 0.46 C-0.17 1.84, 0.56 7.34, 0.71 8.56 M1.13 0.05 C1.03 1.16, 0.57 5.96, 0.49 7.35" stroke="#868e96" stroke-width="2" fill="none"></path></g></g><mask></mask><g stroke-linecap="round"><g transform="translate(33.264705882351336 73.4722222222224) rotate(0 8.85139740464706 0.2793998545208609)"><path d="M0.06 -0.78 C3.2 -1.01, 15.92 -0.75, 19.07 -0.57 M-1.37 1.43 C1.62 1.33, 14.95 1.47, 18.22 0.96" stroke="#868e96" stroke-width="2" fill="none"></path></g></g><mask></mask></svg>