<?xml version="1.0" encoding="UTF-8" standalone="no"?>
<svg
   version="1.1"
   viewBox="0 0 109.18310026888594 101.63878852655546"
   width="327.5493008066578"
   height="304.9163655796664"
   id="svg50"
   sodipodi:docname="tunnel.svg"
   inkscape:version="1.1.2 (0a00cf5339, 2022-02-04)"
   xmlns:inkscape="http://www.inkscape.org/namespaces/inkscape"
   xmlns:sodipodi="http://sodipodi.sourceforge.net/DTD/sodipodi-0.dtd"
   xmlns="http://www.w3.org/2000/svg"
   xmlns:svg="http://www.w3.org/2000/svg">
  <sodipodi:namedview
     id="namedview52"
     pagecolor="#ffffff"
     bordercolor="#666666"
     borderopacity="1.0"
     inkscape:pageshadow="2"
     inkscape:pageopacity="0.0"
     inkscape:pagecheckerboard="0"
     showgrid="false"
     inkscape:zoom="2.8630803"
     inkscape:cx="163.80959"
     inkscape:cy="152.63281"
     inkscape:window-width="1920"
     inkscape:window-height="1043"
     inkscape:window-x="1920"
     inkscape:window-y="0"
     inkscape:window-maximized="1"
     inkscape:current-layer="svg50" />
  <!-- svg-source:excalidraw -->
  <metadata
     id="metadata2" />
  <defs
     id="defs6">
    <style
       class="style-fonts"
       id="style4" />
  </defs>
  <g
     stroke-linecap="round"
     id="g12"
     style="stroke:#501616">
    <g
       transform="translate(17.2291537738879 66.81994770139886) rotate(0 33.35281287932594 -26.124516320626185)"
       id="g10"
       style="stroke:#501616">
      <path
         d="M-2.34 -2.11 C-2.19 -7.54, -2.14 -25.34, 3.37 -34.46 C8.88 -43.57, 20.78 -56.54, 30.72 -56.81 C40.67 -57.09, 57.34 -46.33, 63.05 -36.12 C68.75 -25.92, 64.57 -2.55, 64.95 4.39 M1.59 2.92 C1.33 -3.18, -2.39 -29.29, 2.34 -38.75 C7.06 -48.22, 19.65 -54.8, 29.94 -53.85 C40.22 -52.91, 57.51 -42.82, 64.03 -33.08 C70.55 -23.35, 68.41 -1.44, 69.05 4.57"
         stroke="#868e96"
         stroke-width="2"
         fill="none"
         id="path8"
         style="stroke:#501616" />
    </g>
  </g>
  <mask
     id="mask14" />
  <g
     stroke-linecap="round"
     id="g20"
     style="stroke:#501616">
    <g
       transform="translate(34.53684608158028 63.35840923986041) rotate(0 -11.175570327995047 14.592838853815465)"
       id="g18"
       style="stroke:#501616">
      <path
         d="M2.19 2.19 C-1.2 7.29, -18.43 24.19, -22.57 28.28 M-0.07 0.91 C-3.57 5.31, -20.51 18.85, -24.54 23.59"
         stroke="#868e96"
         stroke-width="2"
         fill="none"
         id="path16"
         style="stroke:#501616" />
    </g>
  </g>
  <mask
     id="mask22" />
  <g
     stroke-linecap="round"
     id="g28"
     style="stroke:#501616">
    <g
       transform="translate(71.4599230046565 66.81994770139886) rotate(0 14.143404695563504 11.336330786622511)"
       id="g26"
       style="stroke:#501616">
      <path
         d="M2.6 1.42 C6.3 5.33, 19.08 19.82, 22.34 22.95 M0.56 -0.27 C5.15 2.92, 23.16 15.24, 27.72 19.12"
         stroke="#868e96"
         stroke-width="2"
         fill="none"
         id="path24"
         style="stroke:#501616" />
    </g>
  </g>
  <mask
     id="mask30" />
  <g
     stroke-linecap="round"
     id="g36"
     style="stroke:#501616">
    <g
       transform="translate(51.84453838927266 71.4353323167835) rotate(0 0.7307735534368476 8.634862764418244)"
       id="g34"
       style="stroke:#501616">
      <path
         d="M-0.89 0.49 C-0.72 3.11, -0.24 13.71, 0.16 16.47 M0.84 -0.31 C1.46 2.38, 2.34 14.48, 2.35 17.57"
         stroke="#868e96"
         stroke-width="2"
         fill="none"
         id="path32"
         style="stroke:#501616" />
    </g>
  </g>
  <mask
     id="mask38" />
  <g
     stroke-linecap="round"
     id="g46"
     style="stroke:#501616">
    <g
       transform="translate(29.921461466196888 66.75458909811863) rotate(0 20.63392013869884 -19.289333398234362)"
       fill-rule="evenodd"
       id="g44"
       style="stroke:#501616">
      <path
         d="M2.01 -26.08 C2.01 -26.08, 2.01 -26.08, 2.01 -26.08 M2.01 -26.08 C2.01 -26.08, 2.01 -26.08, 2.01 -26.08 M-2.75 -15.91 C8.88 -20.61, 11.6 -29.04, 26.03 -38.57 M-0.63 -13.89 C5.96 -18.9, 11.65 -28.33, 23.22 -40.52 M1.36 -2.69 C7.39 -7.42, 22.72 -19.73, 30.15 -38.77 M2.29 -1.58 C7.07 -8.8, 18.83 -19.01, 32.18 -35.41 M14.81 -2.37 C12.74 -8.88, 24.98 -16.93, 38.06 -25.96 M10.11 2.22 C15.42 -5.06, 22.57 -13.85, 36.15 -28.72 M21.69 -2.82 C28.05 -2.47, 29.13 -12, 42.84 -21.63 M23.19 0.73 C25.85 -3.27, 31.36 -9.73, 41.22 -20.64 M31.5 -0.19 C32.74 -5.76, 41.27 -5.55, 42.79 -12.99 M33.54 -0.6 C35.73 -2.63, 37.47 -7.74, 42.34 -10.26 M0 0 C0 0, 0 0, 0 0 M0 0 C0 0, 0 0, 0 0 M11.81 2.14 C7.14 -3.27, 5.26 -5.62, -1.36 -11.63 M10.97 0.12 C10.1 -2.71, 7.01 -3.66, 1.4 -10.97 M27.95 2.46 C21.59 -8.74, 13.48 -8.75, 4.25 -19.6 M26.47 1.84 C16.65 -4.98, 7.58 -13.81, 0.68 -20.32 M34.52 -4.71 C23.39 -9.72, 15.94 -14.7, 6.37 -29.1 M34.92 -2.33 C24.85 -7.89, 17.24 -15.76, 3.68 -29.52 M43.5 -7.04 C38.12 -10.55, 29.13 -16.49, 13.07 -33.45 M42.41 -4.51 C32.76 -11.3, 24.77 -20.17, 9.74 -35.32 M42.28 -16.44 C34.75 -24.38, 20.26 -32.42, 14 -40.52 M44.77 -16.86 C34.38 -22.82, 22.88 -34.25, 14.55 -37.42"
         stroke="#868e96"
         stroke-width="1"
         fill="none"
         id="path40"
         style="stroke:#501616" />
      <path
         d="M-2.64 -2.24 C-1.87 -5.96, -1.93 -17.25, 1.96 -23.75 C5.86 -30.26, 14.56 -41.45, 20.71 -41.29 C26.85 -41.14, 36.06 -29.43, 38.82 -22.82 C41.58 -16.21, 43.6 -5, 37.25 -1.64 C30.9 1.73, 6.72 -2.46, 0.72 -2.63 M1.12 2.72 C1.73 -1.59, -4.65 -20.52, -0.46 -27.32 C3.73 -34.12, 19.43 -38.03, 26.25 -38.08 C33.07 -38.14, 37.81 -33.88, 40.43 -27.64 C43.05 -21.4, 49.4 -5.59, 41.97 -0.63 C34.53 4.33, 2.23 1.8, -4.19 2.12"
         stroke="#868e96"
         stroke-width="2"
         fill="none"
         id="path42"
         style="stroke:#501616" />
    </g>
  </g>
  <mask
     id="mask48" />
</svg>
