<svg version="1.1" xmlns="http://www.w3.org/2000/svg" viewBox="0 0 51.2657171257938 66.30870581007426" width="51.2657171257938" height="66.30870581007426">
  <!-- svg-source:excalidraw -->
  
  <defs>
    <style class="style-fonts">
      
    </style>
    
  </defs>
  <g stroke-linecap="round"><g transform="translate(12.73259057436917 26.935043269773786) rotate(0 12.720196818307613 0.9791220846766748)"><path d="M-0.53 0.05 C-0.51 -2.34, -4.73 -11.61, -0.25 -14.08 C4.23 -16.54, 22.1 -17.69, 26.35 -14.72 C30.61 -11.76, 27.74 -0.05, 25.29 3.73 C22.84 7.5, 13.28 5.74, 11.64 7.91 C10 10.08, 15 15.19, 15.45 16.73 M1.39 -0.96 C1.25 -3.72, -5.52 -13.72, -1.41 -15.82 C2.7 -17.92, 21.55 -17, 26.07 -13.55 C30.58 -10.09, 27.81 1.23, 25.68 4.91 C23.56 8.59, 15.35 6.76, 13.32 8.55 C11.28 10.35, 13.24 14.42, 13.48 15.67" stroke="#868e96" stroke-width="2" fill="none"></path></g></g><mask></mask><g stroke-linecap="round" transform="translate(22.95223588138515 50.60675955225122) rotate(0 3.587747820548202 2.8509731289115194)"><path d="M3.94 0 C4.67 0.23, 5.21 1.09, 5.68 1.59 C6.15 2.1, 6.63 2.49, 6.77 3.02 C6.91 3.54, 6.98 4.33, 6.51 4.77 C6.04 5.2, 4.75 5.41, 3.95 5.61 C3.15 5.82, 2.44 6.28, 1.72 5.98 C0.99 5.69, -0.23 4.57, -0.4 3.82 C-0.57 3.07, 0.23 2.16, 0.69 1.5 C1.15 0.83, 1.7 -0.04, 2.38 -0.19 C3.06 -0.33, 4.44 0.63, 4.77 0.61 C5.11 0.59, 4.48 -0.36, 4.37 -0.3 M3.8 -0.46 C4.65 -0.28, 5.25 1.16, 5.94 1.5 C6.63 1.84, 7.89 1.23, 7.94 1.56 C7.99 1.89, 6.64 2.94, 6.24 3.48 C5.84 4.01, 6.2 4.49, 5.54 4.76 C4.88 5.02, 3.09 5.26, 2.27 5.06 C1.44 4.86, 1.07 3.91, 0.6 3.56 C0.13 3.22, -0.53 3.52, -0.55 3 C-0.58 2.49, -0.2 1.13, 0.44 0.47 C1.09 -0.19, 2.68 -0.87, 3.31 -0.97 C3.94 -1.07, 4.13 -0.4, 4.2 -0.12" stroke="#868e96" stroke-width="2" fill="none"></path></g></svg>