<?xml version="1.0" standalone="no"?>
<!DOCTYPE svg PUBLIC "-//W3C//DTD SVG 1.1//EN" "http://www.w3.org/Graphics/SVG/1.1/DTD/svg11.dtd">
<svg version="1.1" xmlns="http://www.w3.org/2000/svg" viewBox="0 0 91.39969747193709 88.14446422225116" width="91.39969747193709" height="88.14446422225116"><!-- svg-source:excalidraw --><metadata></metadata><defs><style class="style-fonts">
      </style></defs><g stroke-linecap="round"><g transform="translate(46.6061415297213 76.35587915810076) rotate(0 0 -32.5)"><path d="M0.1 -0.06 C5.73 -6.73, 31.83 -28.49, 34.49 -39.2 C37.15 -49.92, 21.73 -63.17, 16.05 -64.34 C10.37 -65.52, 6.88 -46.18, 0.39 -46.25 C-6.1 -46.32, -16.86 -65.68, -22.88 -64.77 C-28.9 -63.86, -39.73 -51.54, -35.75 -40.81 C-31.76 -30.07, -4.74 -7.33, 1.04 -0.34 M-1.31 -1.13 C4.07 -8.22, 30.5 -30.04, 33.27 -40.91 C36.04 -51.78, 20.8 -65.61, 15.31 -66.34 C9.82 -67.07, 6.4 -45.62, 0.32 -45.28 C-5.76 -44.93, -15.31 -65.37, -21.15 -64.26 C-26.99 -63.15, -38.01 -49.62, -34.73 -38.61 C-31.44 -27.6, -7.39 -4.88, -1.43 1.79" stroke="#868e96" stroke-width="2" fill="none"></path></g></g><mask></mask></svg>