<?xml version="1.0" standalone="no"?>
<!DOCTYPE svg PUBLIC "-//W3C//DTD SVG 1.1//EN" "http://www.w3.org/Graphics/SVG/1.1/DTD/svg11.dtd">
<svg version="1.1" xmlns="http://www.w3.org/2000/svg" viewBox="0 0 75.00321279753052 79.58412535650109" width="75.00321279753052" height="79.58412535650109"><!-- svg-source:excalidraw --><metadata></metadata><defs><style class="style-fonts">
      </style></defs><g stroke-linecap="round"><g transform="translate(11.504750397006774 19.761398389699877) rotate(0 25.15761832125304 19.78041386419261)"><path d="M0.33 -0.21 C2.81 -0.89, 11.52 -2.73, 15.65 -4.33 C19.78 -5.92, 21.54 -9.73, 25.12 -9.76 C28.7 -9.79, 32.88 -6.31, 37.11 -4.49 C41.35 -2.67, 48.56 -3.98, 50.53 1.17 C52.49 6.32, 51.25 19.45, 48.91 26.41 C46.57 33.37, 40.24 39.06, 36.51 42.92 C32.78 46.79, 30.83 50.04, 26.54 49.61 C22.25 49.18, 14.79 44.45, 10.76 40.34 C6.74 36.23, 4.36 30.32, 2.39 24.96 C0.42 19.59, -0.53 12.46, -1.04 8.17 C-1.55 3.87, -0.73 0.58, -0.68 -0.83 M-0.95 -1.37 C1.26 -1.91, 10.33 -2.08, 14.52 -3.32 C18.72 -4.56, 20.49 -8.72, 24.21 -8.81 C27.93 -8.91, 32.12 -5.11, 36.85 -3.89 C41.58 -2.66, 50.38 -6.35, 52.58 -1.48 C54.79 3.39, 52.64 18.06, 50.08 25.32 C47.51 32.57, 41.18 37.99, 37.18 42.07 C33.19 46.14, 30.21 50.24, 26.12 49.79 C22.02 49.34, 16.97 43.06, 12.6 39.36 C8.23 35.66, 2.16 32.61, -0.11 27.58 C-2.39 22.54, -1.24 14.02, -1.02 9.14 C-0.8 4.27, 1.19 0.05, 1.21 -1.69" stroke="#868e96" stroke-width="2" fill="none"></path></g></g><mask></mask></svg>