<?xml version="1.0" standalone="no"?>
<!DOCTYPE svg PUBLIC "-//W3C//DTD SVG 1.1//EN" "http://www.w3.org/Graphics/SVG/1.1/DTD/svg11.dtd">
<svg version="1.1" xmlns="http://www.w3.org/2000/svg" viewBox="0 0 88 75" width="88" height="75"><!-- svg-source:excalidraw --><metadata></metadata><defs><style class="style-fonts">
      </style></defs><g stroke-linecap="round" transform="translate(10 10) rotate(0 34 27.5)"><path d="M13.75 0 C22.93 1.3, 31.66 3.11, 54.25 0 M13.75 0 C23.3 0.67, 34.32 -0.28, 54.25 0 M54.25 0 C61.86 -0.61, 69.61 6.75, 68 13.75 M54.25 0 C61.97 2.61, 69.08 1.21, 68 13.75 M68 13.75 C71.19 24.66, 71.48 30.5, 68 41.25 M68 13.75 C66.45 20.1, 67.26 25.88, 68 41.25 M68 41.25 C66.14 48.81, 63.53 52.44, 54.25 55 M68 41.25 C69.33 50.54, 66.77 50.47, 54.25 55 M54.25 55 C39 56.54, 30.59 54.03, 13.75 55 M54.25 55 C37.68 53.9, 24.3 55.96, 13.75 55 M13.75 55 C4.16 56.22, 0.09 49.44, 0 41.25 M13.75 55 C2.44 57.7, -1.16 48.13, 0 41.25 M0 41.25 C2.81 33.65, 2.17 27.89, 0 13.75 M0 41.25 C-1.31 30.2, 0.71 21.68, 0 13.75 M0 13.75 C-0.85 2.07, 7.13 -3.76, 13.75 0 M0 13.75 C-0.41 4.15, 5.15 0.59, 13.75 0" stroke="#868e96" stroke-width="2" fill="none"></path></g><g stroke-linecap="round"><g transform="translate(22 21) rotate(0 20.5 -0.5)"><path d="M0.51 -0.47 C7.11 -0.7, 33.48 -0.13, 40.22 -0.26 M-0.68 -1.76 C6.24 -1.83, 35.71 -2.28, 42.52 -1.99" stroke="#868e96" stroke-width="2" fill="none"></path></g></g><mask></mask></svg>