<?xml version="1.0" standalone="no"?>
<!DOCTYPE svg PUBLIC "-//W3C//DTD SVG 1.1//EN" "http://www.w3.org/Graphics/SVG/1.1/DTD/svg11.dtd">
<svg version="1.1" xmlns="http://www.w3.org/2000/svg" viewBox="0 0 91.81328173119982 89.69075724781939" width="91.81328173119982" height="89.69075724781939"><!-- svg-source:excalidraw --><metadata></metadata><defs><style class="style-fonts">
      </style></defs><g stroke-linecap="round"><g transform="translate(15.421408303897351 28.056857691609224) rotate(0 30 22.5)"><path d="M2.18 1.21 C7.97 3.13, 25.21 12.01, 35.26 11.03 C45.32 10.04, 57.81 -8.17, 62.52 -4.68 C67.23 -1.2, 67.58 22.86, 63.52 31.92 C59.46 40.97, 48.65 50.16, 38.15 49.66 C27.64 49.16, 6.69 37.28, 0.47 28.91 C-5.75 20.54, 0.72 4.09, 0.83 -0.57 M-0.08 -0.59 C6.48 1.85, 29.91 14.99, 40.18 14.67 C50.45 14.35, 57.41 -5.79, 61.54 -2.49 C65.66 0.81, 68.13 25.48, 64.93 34.48 C61.72 43.47, 53.71 52.92, 42.31 51.49 C30.9 50.05, 3.08 35.12, -3.5 25.86 C-10.08 16.61, 2.33 0.15, 2.8 -4.05" stroke="#868e96" stroke-width="2" fill="none"></path></g></g><mask></mask><g stroke-linecap="round"><g transform="translate(54.42140830389735 37.056857691609224) rotate(0 -9 6)"><path d="M1.69 -2.49 C2.46 3.69, 13.36 34.91, 6.53 38.65 C-0.29 42.4, -32.07 28.11, -39.27 19.96 C-46.46 11.81, -40.49 -2.42, -36.64 -10.24 C-32.78 -18.07, -25.57 -26.04, -16.16 -26.99 C-6.75 -27.95, 13.64 -17.96, 19.82 -15.97 M-0.83 2.32 C-0.48 8.63, 11.77 38.81, 5.13 41.01 C-1.51 43.2, -33.66 23.63, -40.67 15.5 C-47.69 7.37, -41.78 -1.02, -36.94 -7.77 C-32.1 -14.52, -21.44 -24.47, -11.62 -24.98 C-1.8 -25.49, 16.39 -13.33, 21.98 -10.85" stroke="#868e96" stroke-width="2" fill="none"></path></g></g><mask></mask></svg>