<?xml version="1.0" standalone="no"?>
<!DOCTYPE svg PUBLIC "-//W3C//DTD SVG 1.1//EN" "http://www.w3.org/Graphics/SVG/1.1/DTD/svg11.dtd">
<svg version="1.1" xmlns="http://www.w3.org/2000/svg" viewBox="0 0 84.70148150749628 73.45066663102472" width="84.70148150749628" height="73.45066663102472"><!-- svg-source:excalidraw --><metadata></metadata><defs><style class="style-fonts">
      </style></defs><g stroke-linecap="round"><g transform="translate(11.140116788240448 14.148838393688209) rotate(0 29.131578947368325 22.60526315789474)"><path d="M-0.9 -2.72 C2.41 -2.62, 16.95 -2.45, 21.03 0.26 C25.12 2.97, 17.38 11.8, 23.6 13.55 C29.82 15.29, 53.45 5.48, 58.36 10.74 C63.27 16, 62.01 39.63, 53.07 45.11 C44.14 50.6, 13.73 51.28, 4.75 43.65 C-4.23 36.03, -0.06 6.54, -0.81 -0.63 M3.81 1.98 C6.53 1.37, 15.22 -4.69, 18.13 -3.43 C21.04 -2.18, 14.45 6.81, 21.26 9.51 C28.07 12.22, 53.02 6.9, 59 12.78 C64.98 18.66, 65.79 39.87, 57.14 44.81 C48.49 49.75, 16.6 50.57, 7.12 42.41 C-2.36 34.25, 1.79 2.88, 0.27 -4.15" stroke="#868e96" stroke-width="2" fill="none"></path></g></g><mask></mask></svg>