<svg version="1.1" xmlns="http://www.w3.org/2000/svg" viewBox="0 0 70.76504293056087 74.93263272950968" width="70.76504293056087" height="74.93263272950968">
  <!-- svg-source:excalidraw -->
  
  <defs>
    <style class="style-fonts">
      
    </style>
    
  </defs>
  <g stroke-linecap="round"><g transform="translate(58.90369500943052 27.696189915117728) rotate(0 -22.374708173359977 7.4446288154976585)" fill-rule="evenodd"><path d="M0.87 -1.03 C-0.97 -3.87, -5.44 -17.5, -13.01 -19.38 C-20.59 -21.27, -38.83 -20.7, -44.61 -12.33 C-50.38 -3.96, -54.56 23.55, -47.68 30.83 C-40.8 38.11, -11.29 36.23, -3.31 31.35 C4.67 26.47, 1.69 9.5, 0.21 1.56 C-1.27 -6.37, -9.72 -15.41, -12.2 -16.26 C-14.67 -17.1, -16.46 -6.46, -14.64 -3.51 C-12.81 -0.56, -4.02 1.19, -1.24 1.43" stroke="none" stroke-width="0" fill="#ffffff" fill-rule="evenodd"></path><path d="M0.99 0.38 C-1.44 -2.3, -7.41 -15.5, -14.72 -17.11 C-22.02 -18.72, -37.72 -17.3, -42.82 -9.27 C-47.93 -1.25, -51.57 24.07, -45.34 31.05 C-39.12 38.02, -13.2 37.76, -5.45 32.59 C2.29 27.41, 2.68 8.18, 1.14 0.02 C-0.41 -8.13, -12 -16.26, -14.73 -16.34 C-17.47 -16.41, -17.62 -3.23, -15.3 -0.42 C-12.97 2.39, -3.3 0.41, -0.78 0.53 M0.05 -0.47 C-2.51 -2.84, -8.25 -13.73, -15.56 -15.5 C-22.87 -17.28, -38.9 -19.05, -43.81 -11.14 C-48.72 -3.22, -51.73 24.6, -45 31.99 C-38.27 39.39, -10.79 38.17, -3.45 33.22 C3.9 28.26, 0.87 10.18, -0.93 2.25 C-2.72 -5.69, -12.14 -13.97, -14.2 -14.37 C-16.26 -14.77, -15.78 -2.45, -13.28 -0.16 C-10.78 2.14, -1.5 -0.6, 0.8 -0.58" stroke="#868e96" stroke-width="2" fill="none"></path></g></g><mask></mask></svg>