<?xml version="1.0" standalone="no"?>
<!DOCTYPE svg PUBLIC "-//W3C//DTD SVG 1.1//EN" "http://www.w3.org/Graphics/SVG/1.1/DTD/svg11.dtd">
<svg version="1.1" xmlns="http://www.w3.org/2000/svg" viewBox="0 0 92.38092425068544 87.8371824983142" width="92.38092425068544" height="87.8371824983142"><!-- svg-source:excalidraw --><metadata></metadata><defs><style class="style-fonts">
      </style></defs><g stroke-linecap="round"><g transform="translate(61.372163380339316 75.29167471896929) rotate(0 -14.828947368420813 -31.23684210526318)"><path d="M0.45 2.55 C1.05 -7.39, 4.2 -52.74, 2.16 -62.24 C0.13 -71.73, -2.96 -56.21, -11.75 -54.43 C-20.53 -52.64, -55.99 -52.26, -50.53 -51.53 C-45.07 -50.8, 9.11 -51.09, 21.01 -50.06 M-2.75 1.46 C-2.48 -7.73, 1.08 -49.56, -0.61 -58.48 C-2.31 -67.41, -4.56 -53.73, -12.93 -52.09 C-21.3 -50.46, -56.08 -48.97, -50.84 -48.67 C-45.6 -48.37, 7.28 -50.66, 18.5 -50.28" stroke="#868e96" stroke-width="2" fill="none"></path></g></g><mask></mask><g stroke-linecap="round" transform="translate(14.740584432970536 44.29167471896929) rotate(0 12.605263157895024 6.473684210526301)"><path d="M3.24 0 C8.75 0.54, 13.36 0.68, 21.97 0 M3.24 0 C8.13 -0.24, 14.47 0.58, 21.97 0 M21.97 0 C25.11 0.32, 23.34 3, 25.21 3.24 M21.97 0 C26.22 -1.97, 27.09 2.34, 25.21 3.24 M25.21 3.24 C24.83 5.51, 25.58 7.08, 25.21 9.71 M25.21 3.24 C25.06 4.77, 25.19 6.22, 25.21 9.71 M25.21 9.71 C26.96 11.57, 24.35 12.4, 21.97 12.95 M25.21 9.71 C25.65 12.85, 24.02 12.86, 21.97 12.95 M21.97 12.95 C19.82 13.47, 13.52 14.22, 3.24 12.95 M21.97 12.95 C15.14 13.27, 7.77 12.48, 3.24 12.95 M3.24 12.95 C0.57 14.94, 0.44 10.49, 0 9.71 M3.24 12.95 C3.18 14.87, 2.28 11.77, 0 9.71 M0 9.71 C-0.53 7.16, -0.24 5.4, 0 3.24 M0 9.71 C0.29 8.26, 0.11 6.77, 0 3.24 M0 3.24 C-1.91 0.99, 0.34 -1.28, 3.24 0 M0 3.24 C-0.63 2.65, 1.27 -0.19, 3.24 0" stroke="#868e96" stroke-width="2" fill="none"></path></g><g stroke-linecap="round"><g transform="translate(26.951110748760584 26.29167471896929) rotate(0 -5.578947368421268 10.578947368421098)"><path d="M-0.06 -0.04 C-2.14 3.32, -10.34 16.98, -12.28 20.69 M-1.55 -1.11 C-3.3 2.37, -8.29 18.39, -10.16 21.99" stroke="#868e96" stroke-width="2" fill="none"></path></g></g><mask></mask><g stroke-linecap="round"><g transform="translate(26.301987941742937 26.53728875405696) rotate(0 5.526315789473756 8.42105263157896)"><path d="M1.09 -0.3 C2.89 2.26, 10.01 12.99, 11.61 15.89 M0.2 -1.5 C1.82 1.12, 9.37 13.59, 10.95 16.92" stroke="#868e96" stroke-width="2" fill="none"></path></g></g><mask></mask></svg>