<?xml version="1.0" standalone="no"?>
<!DOCTYPE svg PUBLIC "-//W3C//DTD SVG 1.1//EN" "http://www.w3.org/Graphics/SVG/1.1/DTD/svg11.dtd">
<svg version="1.1" xmlns="http://www.w3.org/2000/svg" viewBox="0 0 65.75880506923158 80.96648800136307" width="65.75880506923158" height="80.96648800136307"><!-- svg-source:excalidraw --><metadata></metadata><defs><style class="style-fonts">
      </style></defs><g stroke-linecap="round"><g transform="translate(11.319487730062974 38.41555155652674) rotate(0 21.736842105263122 -13.97368421052633)"><path d="M-0.2 -0.37 C1.73 -3.11, 4.35 -12.01, 11.67 -16.68 C19 -21.36, 38.5 -26.52, 43.77 -28.42 M0.7 0.63 C2.8 -2.01, 5.6 -11.3, 12.75 -16.08 C19.9 -20.86, 38.48 -26.13, 43.57 -28.06" stroke="#868e96" stroke-width="1" fill="none"></path></g><g transform="translate(11.319487730062974 38.41555155652674) rotate(0 21.736842105263122 -13.97368421052633)"><path d="M44.16 -27.49 L33.48 -17.86 L28.29 -29.63 L43.9 -28.28" stroke="none" stroke-width="0" fill="#868e96" fill-rule="evenodd"></path><path d="M43.57 -28.06 C39.65 -25.27, 36.5 -21.22, 32.7 -17.73 M43.57 -28.06 C41.58 -25.92, 38.97 -23.69, 32.7 -17.73 M32.7 -17.73 C31.42 -22.58, 29.1 -26.28, 28.67 -29.75 M32.7 -17.73 C31.69 -20.08, 31.16 -23.06, 28.67 -29.75 M28.67 -29.75 C34.14 -28.77, 37.95 -28.96, 43.57 -28.06 M28.67 -29.75 C34.28 -29.31, 40.5 -28.37, 43.57 -28.06 M43.57 -28.06 C43.57 -28.06, 43.57 -28.06, 43.57 -28.06 M43.57 -28.06 C43.57 -28.06, 43.57 -28.06, 43.57 -28.06" stroke="#868e96" stroke-width="1" fill="none"></path></g></g><mask></mask><g stroke-linecap="round"><g transform="translate(17.31948773006252 39.362919977579395) rotate(0 19.15789473684231 1.2894736842105203)"><path d="M-0.93 0.83 C1.56 0.67, 8.07 -0.05, 14.63 0.04 C21.19 0.13, 34.52 1.1, 38.44 1.39 M0.78 0.22 C3.16 0.7, 7.64 0.77, 13.8 1.08 C19.96 1.39, 33.65 1.86, 37.74 2.09" stroke="#868e96" stroke-width="1" fill="none"></path></g><g transform="translate(17.31948773006252 39.362919977579395) rotate(0 19.15789473684231 1.2894736842105203)"><path d="M39.33 0.66 L27.14 7.25 L25.84 -2.45 L37.89 1.82" stroke="none" stroke-width="0" fill="#868e96" fill-rule="evenodd"></path><path d="M38.57 2.31 C33.77 3.39, 30.47 4.37, 25.86 5.88 M37.81 2.68 C35.41 2.98, 33.44 4.1, 26.82 6.96 M26.14 6.96 C27.05 3.19, 27.13 1.94, 26.88 -3.32 M26.91 6.24 C27.2 3.7, 27 1.28, 27.34 -3.89 M26.41 -4.56 C29.97 -2.31, 32.43 0.17, 37.66 2.46 M27 -3.47 C30.91 -1.34, 35.49 0.36, 37.26 2.43 M37.74 2.09 C37.74 2.09, 37.74 2.09, 37.74 2.09 M37.74 2.09 C37.74 2.09, 37.74 2.09, 37.74 2.09" stroke="#868e96" stroke-width="1" fill="none"></path></g></g><mask></mask><g stroke-linecap="round"><g transform="translate(10.21422457216795 42.257656819684655) rotate(0 21.187266642848954 14.128622857154568)"><path d="M0.3 -0.47 C3.82 2.73, 13.71 14.25, 20.81 19.02 C27.92 23.79, 39.29 26.63, 42.9 28.16 M-0.21 0.48 C3.25 3.78, 13.12 14.95, 20.3 19.65 C27.47 24.36, 39.1 27.21, 42.83 28.71" stroke="#868e96" stroke-width="1" fill="none"></path></g><g transform="translate(10.21422457216795 42.257656819684655) rotate(0 21.187266642848954 14.128622857154568)"><path d="M42.45 28.83 L31.6 29.8 L35.14 20.48 L43.74 29.2" stroke="none" stroke-width="0" fill="#868e96" fill-rule="evenodd"></path><path d="M42.83 28.71 C39.51 28.88, 37.06 29.94, 31.27 30.02 M42.83 28.71 C39.78 28.98, 36.2 29.54, 31.27 30.02 M31.27 30.02 C31.68 27.43, 32.48 25.21, 34.4 20.7 M31.27 30.02 C32.53 26.27, 33.63 22.96, 34.4 20.7 M34.4 20.7 C37.93 23.62, 40.86 25.9, 42.83 28.71 M34.4 20.7 C36.4 22.74, 38.47 24.69, 42.83 28.71 M42.83 28.71 C42.83 28.71, 42.83 28.71, 42.83 28.71 M42.83 28.71 C42.83 28.71, 42.83 28.71, 42.83 28.71" stroke="#868e96" stroke-width="1" fill="none"></path></g></g><mask></mask></svg>