<svg version="1.1" xmlns="http://www.w3.org/2000/svg" viewBox="0 0 70.83071306987631 75.11963364898645" width="70.83071306987631" height="75.11963364898645">
  <!-- svg-source:excalidraw -->
  
  <defs>
    <style class="style-fonts">
      
    </style>
    
  </defs>
  <g stroke-linecap="round" transform="translate(10 10) rotate(0 22.5 22.25)"><path d="M32.79 3.17 C36.99 4.97, 41.67 9.67, 43.69 14.07 C45.71 18.48, 46.46 25.25, 44.9 29.57 C43.34 33.9, 38.59 37.61, 34.33 40.04 C30.07 42.47, 24 44.51, 19.36 44.16 C14.72 43.82, 9.78 41.33, 6.5 37.97 C3.22 34.62, -0.05 28.98, -0.32 24.04 C-0.58 19.1, 2.11 12.08, 4.93 8.33 C7.75 4.58, 11.73 2.34, 16.59 1.52 C21.44 0.7, 30.69 2.77, 34.07 3.41 C37.45 4.05, 36.88 4.88, 36.87 5.34 M14.47 1.58 C18.73 -0.34, 25.03 -1.32, 29.8 0.26 C34.56 1.83, 40.71 6.49, 43.08 11.05 C45.46 15.61, 45.32 22.71, 44.03 27.63 C42.74 32.54, 39.04 37.99, 35.34 40.55 C31.63 43.12, 26.16 43.26, 21.8 43.01 C17.43 42.77, 12.54 41.87, 9.15 39.09 C5.75 36.32, 2.22 30.86, 1.44 26.35 C0.67 21.84, 2.11 16.32, 4.48 12.03 C6.86 7.74, 13.76 2.25, 15.7 0.62 C17.65 -1.02, 16.34 1.86, 16.15 2.22" stroke="#868e96" stroke-width="2" fill="none"></path></g><g stroke-linecap="round"><g transform="translate(38.125 50.625) rotate(0 11.5625 4.6875)"><path d="M-1.13 0 C1 2.31, 9.94 11.4, 13.9 13.19 C17.87 14.97, 23.26 13.89, 22.66 10.72 C22.05 7.55, 12.47 -3.3, 10.27 -5.82 M0.48 -1.04 C2.36 1.42, 9.51 12.47, 13.04 14.1 C16.56 15.73, 22.05 11.96, 21.65 8.76 C21.25 5.55, 12.37 -3.07, 10.66 -5.15" stroke="#868e96" stroke-width="2" fill="none"></path></g></g><mask></mask></svg>