<svg version="1.1" xmlns="http://www.w3.org/2000/svg" viewBox="0 0 86.74939839774561 66.09433024078561" width="86.74939839774561" height="66.09433024078561">
  <!-- svg-source:excalidraw -->
  
  <defs>
    <style class="style-fonts">
      @font-face {
        font-family: "Virgil";
        src: url("https://excalidraw.com/Virgil.woff2");
      }
      @font-face {
        font-family: "Cascadia";
        src: url("https://excalidraw.com/Cascadia.woff2");
      }
      @font-face {
        font-family: "Assistant";
        src: url("https://excalidraw.com/Assistant-Regular.woff2");
      }
    </style>
    
  </defs>
  <g stroke-linecap="round"><g transform="translate(13.68302903395761 24.2943610578547) rotate(0 31.17647058823536 8.529411764705912)"><path d="M0.5 0.88 C0.44 4.11, -5.78 16.89, -0.49 19.66 C4.81 22.43, 26.81 15.48, 32.26 17.5 C37.71 19.52, 27.1 32.56, 32.23 31.77 C37.36 30.97, 62.28 20.29, 63.05 12.75 C63.82 5.21, 41.54 -11.17, 36.84 -13.47 C32.14 -15.78, 41.11 -3.37, 34.85 -1.09 C28.6 1.19, 5.18 0.21, -0.71 0.19 M-0.7 0.3 C-0.9 3.68, -6.84 17.95, -1.38 21.03 C4.08 24.1, 26.94 17.33, 32.07 18.74 C37.19 20.16, 24.44 30.98, 29.37 29.52 C34.29 28.06, 60.17 17.28, 61.63 10 C63.09 2.72, 42.43 -12.62, 38.14 -14.17 C33.84 -15.73, 41.98 -1.7, 35.88 0.65 C29.79 3.01, 7.32 -0.02, 1.55 -0.05" stroke="#868e96" stroke-width="2" fill="none"></path></g></g><mask></mask></svg>