<?xml version="1.0" standalone="no"?>
<!DOCTYPE svg PUBLIC "-//W3C//DTD SVG 1.1//EN" "http://www.w3.org/Graphics/SVG/1.1/DTD/svg11.dtd">
<svg version="1.1" xmlns="http://www.w3.org/2000/svg" viewBox="0 0 72.5 73.99999999999989" width="72.5" height="73.99999999999989"><!-- svg-source:excalidraw --><metadata></metadata><defs><style class="style-fonts">
      </style></defs><g stroke-linecap="round" transform="translate(10 10) rotate(0 26.25 26.999999999999943)"><path d="M19.47 0.78 C24.59 -1.06, 31.89 -0.27, 36.9 2.27 C41.91 4.82, 47.19 10.71, 49.52 16.06 C51.85 21.41, 51.99 29.04, 50.85 34.35 C49.71 39.66, 47.22 44.57, 42.69 47.93 C38.16 51.29, 29.41 54.59, 23.67 54.51 C17.94 54.44, 12.36 51.68, 8.28 47.47 C4.2 43.25, -0.24 35.3, -0.82 29.25 C-1.39 23.19, 1.09 15.76, 4.82 11.13 C8.55 6.5, 18.58 3.35, 21.58 1.47 C24.57 -0.4, 22.95 -0.24, 22.79 -0.09 M18.92 0.59 C24.04 -0.98, 32.84 1.51, 37.87 4.05 C42.89 6.59, 47.02 10.69, 49.06 15.83 C51.1 20.98, 51.57 29.33, 50.14 34.92 C48.7 40.5, 44.91 46.42, 40.45 49.36 C35.99 52.29, 28.87 53.23, 23.37 52.53 C17.88 51.83, 11.58 49.33, 7.47 45.16 C3.36 40.99, -1.11 33.14, -1.28 27.5 C-1.44 21.86, 2.96 15.67, 6.5 11.32 C10.04 6.97, 17.89 3.12, 19.99 1.4 C22.08 -0.32, 18.96 0.52, 19.05 1.01" stroke="#868e96" stroke-width="2" fill="none"></path></g><g stroke-linecap="round" transform="translate(30.5 32.99999999999994) rotate(0 4.5 4)"><path d="M4.01 -0.13 C4.85 -0.23, 6.03 0.4, 6.83 0.94 C7.63 1.47, 8.52 2.31, 8.8 3.1 C9.09 3.89, 8.93 4.92, 8.55 5.68 C8.17 6.43, 7.45 7.31, 6.54 7.63 C5.64 7.94, 4.04 7.73, 3.12 7.56 C2.21 7.39, 1.54 7.33, 1.07 6.63 C0.61 5.93, 0.31 4.28, 0.32 3.36 C0.33 2.44, 0.51 1.63, 1.13 1.1 C1.76 0.57, 3.59 0.38, 4.08 0.2 C4.56 0.01, 3.97 -0.06, 4.03 0 M5.43 -0.17 C6.41 -0.15, 7.55 0.63, 8.18 1.29 C8.81 1.94, 9.25 2.88, 9.23 3.76 C9.2 4.64, 8.73 5.87, 8.04 6.56 C7.35 7.26, 6.05 7.75, 5.1 7.93 C4.15 8.11, 3.05 7.97, 2.33 7.64 C1.61 7.31, 1.08 6.8, 0.78 5.97 C0.49 5.14, 0.43 3.47, 0.57 2.66 C0.71 1.84, 0.84 1.57, 1.62 1.09 C2.41 0.61, 4.7 -0.1, 5.28 -0.23 C5.86 -0.37, 5.15 0.14, 5.11 0.26" stroke="#868e96" stroke-width="2" fill="none"></path></g></svg>