<?xml version="1.0" encoding="UTF-8" standalone="no"?>
<svg
   viewBox="0 0 275.88773 294.48554"
   version="1.0"
   id="svg2"
   height="314.11792"
   width="294.28024"
   sodipodi:docname="mtls.svg"
   inkscape:version="1.1.2 (0a00cf5339, 2022-02-04)"
   xmlns:inkscape="http://www.inkscape.org/namespaces/inkscape"
   xmlns:sodipodi="http://sodipodi.sourceforge.net/DTD/sodipodi-0.dtd"
   xmlns="http://www.w3.org/2000/svg"
   xmlns:svg="http://www.w3.org/2000/svg"
   xmlns:rdf="http://www.w3.org/1999/02/22-rdf-syntax-ns#"
   xmlns:cc="http://creativecommons.org/ns#"
   xmlns:dc="http://purl.org/dc/elements/1.1/">
  <sodipodi:namedview
     id="namedview12"
     pagecolor="#ffffff"
     bordercolor="#666666"
     borderopacity="1.0"
     inkscape:pageshadow="2"
     inkscape:pageopacity="0.0"
     inkscape:pagecheckerboard="0"
     showgrid="false"
     inkscape:zoom="1.0560744"
     inkscape:cx="158.1328"
     inkscape:cy="137.30093"
     inkscape:window-width="1920"
     inkscape:window-height="1043"
     inkscape:window-x="1920"
     inkscape:window-y="0"
     inkscape:window-maximized="1"
     inkscape:current-layer="svg2"
     fit-margin-top="0"
     fit-margin-left="0"
     fit-margin-right="0"
     fit-margin-bottom="0" />
  <defs
     id="defs4">
    <style
       class="style-fonts"
       id="style838" />
    <style
       class="style-fonts"
       id="style940" />
    <style
       class="style-fonts"
       id="style1251" />
  </defs>
  <metadata
     id="metadata7">
    <rdf:RDF>
      <cc:Work
         rdf:about="">
        <dc:format>image/svg+xml</dc:format>
        <dc:type
           rdf:resource="http://purl.org/dc/dcmitype/StillImage" />
      </cc:Work>
    </rdf:RDF>
  </metadata>
  <g
     transform="matrix(3.4729059,0,0,3.4729059,-405.46286,-108.53914)"
     id="g834">
    <path
       id="path3180"
       d="m 142.57003,31.282665 c -5.8392,0.494201 -11.85716,3.778568 -16.07537,11.19205 -3.78073,7.213746 -4.41669,18.142486 -2.83816,27.266588 1.95501,11.688338 7.62457,21.739346 14.56423,23.736561 6.516,1.984479 13.26318,-1.194945 18.86391,-7.129547 4.22357,-4.431938 8.23698,-10.818485 9.51491,-19.487133 1.65701,-10.515874 -1.40601,-22.287737 -6.62005,-27.857863 -4.9609,-5.526133 -10.9336,-7.48499 -16.72647,-7.750203 -0.22766,0.0099 -0.45534,0.01967 -0.683,0.02956 z"
       style="fill:#ff6600;fill-opacity:1;fill-rule:nonzero;stroke:none;stroke-width:0.620701;stroke-linecap:round;stroke-linejoin:round;stroke-miterlimit:4;stroke-dasharray:none;stroke-dashoffset:200;stroke-opacity:1" />
    <ellipse
       id="path3190"
       style="fill:#feda00;fill-opacity:1;fill-rule:nonzero;stroke:none;stroke-width:1.95007"
       cx="178.0654"
       cy="92.226799"
       rx="15.120144"
       ry="13.581159" />
  </g>
  <flowRoot
     xml:space="preserve"
     id="flowRoot840"
     style="font-style:normal;font-weight:normal;font-size:40px;line-height:125%;font-family:sans-serif;letter-spacing:0px;word-spacing:0px;fill:#000000;fill-opacity:1;stroke:none;stroke-width:1px;stroke-linecap:butt;stroke-linejoin:miter;stroke-opacity:1"
     transform="matrix(0.93749997,0,0,0.93749997,-40.212098,-39.744054)"><flowRegion
       id="flowRegion842"
       style="fill:#000000;stroke:none"><rect
         id="rect844"
         width="241.43697"
         height="42.502354"
         x="65.52446"
         y="299.39099"
         style="fill:#000000;stroke:none" /></flowRegion><flowPara
       id="flowPara846">migasfree</flowPara></flowRoot>
  <ellipse
     style="fill:#ffffff;stroke:#000000;stroke-width:3.65173;stroke-miterlimit:4;stroke-dasharray:none;stroke-opacity:1"
     id="path851"
     cx="62.626236"
     cy="62.234753"
     rx="37.022388"
     ry="13.415572" />
  <ellipse
     style="fill:#000000;stroke:#000000;stroke-width:4.42373;stroke-miterlimit:4;stroke-dasharray:none;stroke-opacity:1"
     id="path999"
     cx="76.464249"
     cy="58.597271"
     rx="8.078826"
     ry="7.237431" />
  <ellipse
     style="fill:#ffffff;stroke:#000000;stroke-width:3.8259;stroke-miterlimit:4;stroke-dasharray:none;stroke-opacity:1"
     id="path851-3"
     cx="134.9585"
     cy="62.704834"
     rx="38.042519"
     ry="12.748654" />
  <ellipse
     style="fill:#000000;stroke:#000000;stroke-width:5.31307;stroke-miterlimit:4;stroke-dasharray:none;stroke-opacity:1"
     id="path999-6"
     cx="121.98192"
     cy="59.885773"
     rx="8.987422"
     ry="8.497653" />
  <ellipse
     style="fill:#ffffff;stroke:#000000;stroke-width:5.09115;stroke-miterlimit:4;stroke-dasharray:none;stroke-opacity:1"
     id="path851-36"
     cx="211.62956"
     cy="178.29201"
     rx="35.603939"
     ry="27.115112" />
  <ellipse
     style="fill:#000000;stroke:#000000;stroke-width:4.16657;stroke-miterlimit:4;stroke-dasharray:none;stroke-opacity:1"
     id="path999-7"
     cx="201.9207"
     cy="157.73186"
     rx="6.993062"
     ry="7.4172807" />
  <ellipse
     style="fill:#ffffff;stroke:#000000;stroke-width:5.56871;stroke-miterlimit:4;stroke-dasharray:none;stroke-opacity:1"
     id="path851-3-5"
     cx="240.58965"
     cy="184.54877"
     rx="32.51371"
     ry="31.601463" />
  <ellipse
     style="fill:#000000;stroke:#000000;stroke-width:4.93928;stroke-miterlimit:4;stroke-dasharray:none;stroke-opacity:1"
     id="path999-6-3"
     cx="225.2747"
     cy="166.2706"
     rx="8.0510101"
     ry="8.1982346" />
  <g
     id="g1566"
     transform="translate(-66.113303,1.8955133)">
    <g
       stroke-linecap="round"
       id="g1261"
       style="fill:#808080"
       transform="matrix(0.93749998,0,0,0.93749998,58.615426,62.936123)">
      <g
         transform="translate(12.017466,49.465003)"
         fill-rule="evenodd"
         id="g1259"
         style="fill:#808080">
        <path
           d="M -3.91,4.01 C 7.08,1.96 46.67,-7.34 63.74,-14.08 c 17.07,-6.73 21.42,-22.68 34.75,-22.33 13.34,0.35 30.45,17.67 45.23,24.42 14.78,6.75 36.83,-3.58 43.48,16.07 6.65,19.65 4.88,74.19 -3.57,101.83 -8.44,27.65 -32.92,49.13 -47.09,64.05 -14.16,14.91 -21.84,26.75 -37.9,25.44 C 82.59,194.08 55.15,176.66 40.21,162.05 25.27,147.45 15.43,129.38 8.98,107.77 2.54,86.17 3.24,49.86 1.53,32.4 -0.17,14.94 -1.56,7.8 -1.26,3.03"
           stroke="none"
           stroke-width="0"
           fill="#228be6"
           fill-rule="evenodd"
           id="path1255"
           style="fill:#808080" />
        <path
           d="m 2.39,0.94 c 9.53,-2.24 40.7,-6.48 56.18,-12.42 15.48,-5.94 22.79,-22.88 36.7,-23.23 13.91,-0.35 30.54,15.4 46.74,21.13 16.19,5.74 43.65,-7.03 50.44,13.27 6.8,20.31 -0.47,80.51 -9.67,108.56 -9.19,28.06 -30.61,45.68 -45.5,59.8 -14.9,14.11 -27.58,26.32 -43.88,24.89 C 77.1,191.52 54.34,173.86 39.47,159.5 24.6,145.14 10.99,127.92 4.19,106.76 -2.61,85.6 -0.35,50.78 -1.33,32.55 -2.3,14.31 -2.08,2.43 -1.66,-2.64 m 1.9,1.63 c 10.35,-3.23 48.42,-8.13 63.96,-14.53 15.53,-6.4 16.27,-24.71 29.25,-23.9 12.98,0.81 32.54,22.12 48.63,28.76 16.09,6.65 40.8,-8.5 47.91,11.13 7.11,19.63 3.25,79.2 -5.24,106.64 -8.48,27.44 -31.32,43.93 -45.68,58 -14.36,14.07 -24.48,27.74 -40.48,26.41 C 82.6,190.16 58.69,171.14 43.08,157.08 27.47,143.02 12.17,127.51 4.93,107.13 -2.3,86.75 0.03,52.08 -0.33,34.82 -0.7,17.56 2.3,9.15 2.74,3.57"
           stroke="#1e1e1e"
           stroke-width="4"
           fill="none"
           id="path1257"
           style="fill:#808080" />
      </g>
    </g>
    <g
       stroke-linecap="round"
       id="g1271"
       style="fill:#ffffff"
       transform="matrix(0.93749998,0,0,0.93749998,52.73102,62.9138)">
      <g
         transform="translate(61.429231,115.64147)"
         fill-rule="evenodd"
         id="g1269"
         style="fill:#ffffff">
        <path
           d="m -4.08,2.09 c 2.66,-0.95 13.67,-12.22 19.91,-8.48 6.24,3.73 5.32,35.54 17.53,30.9 12.21,-4.64 44,-49.62 55.72,-58.74 11.73,-9.12 11.55,-1.02 14.62,4.01 3.07,5.03 13.64,10.45 3.79,26.19 C 97.63,11.71 60.6,57.01 44.57,64.21 28.54,71.41 19,49.7 11.31,39.17 3.62,28.64 0.28,6.86 -1.55,1.03 -3.37,-4.81 0.49,4.48 0.34,4.16"
           stroke="none"
           stroke-width="0"
           fill="#ffffff"
           fill-rule="evenodd"
           id="path1265"
           style="fill:#ffffff" />
        <path
           d="m -0.24,2.26 c 2.01,-0.99 7.81,-13.05 13.32,-8.94 5.51,4.11 7.19,37.88 19.76,33.58 12.56,-4.29 43.44,-50.31 55.64,-59.36 12.2,-9.05 15.07,0.09 17.54,5.04 2.47,4.94 8.41,9.62 -2.72,24.62 C 92.17,12.19 54.8,54.98 39.25,62.54 23.71,70.09 17.3,52.19 10.02,42.5 2.75,32.82 -2.98,11.4 -4.39,4.44 -5.8,-2.53 0.83,1.25 1.58,0.7 m -5.4,0.32 c 1.54,-1.68 7.55,-16.42 14.58,-11.55 7.02,4.87 14.66,44.22 27.57,40.78 12.92,-3.45 37.91,-52.06 49.9,-61.44 12,-9.38 19.25,0.9 22.08,5.13 2.83,4.23 6.71,4.73 -5.08,20.24 C 93.44,9.68 55.73,58.89 39.57,66.98 23.4,75.08 16.16,53.47 8.25,42.74 0.35,32.01 -7.18,9.74 -7.85,2.62 -8.52,-4.5 2.78,-0.23 4.25,0.01"
           stroke="#1e1e1e"
           stroke-width="4"
           fill="none"
           id="path1267"
           style="fill:#ffffff" />
      </g>
    </g>
  </g>
</svg>
